<svg width="500" height="500" viewBox="0 0 500 500" fill="none" xmlns="http://www.w3.org/2000/svg">
<path d="M215.07 391.74H36.34L59.51 334.77L71.75 328.06L91.02 283.51L106.6 274.36L121.42 247.56H136.04L168.54 302.43L185.08 310.97L215.07 391.74Z" fill="#EBEBEB"/>
<path d="M36.34 391.74H113.43V347.28L133.21 316.16L123.79 283.51L136.04 247.56H121.42L106.6 274.36L91.02 283.51L71.75 328.06L59.51 334.77L36.34 391.74Z" fill="#DBDBDB"/>
<path d="M136.04 391.74L143.51 368.33L155.59 356.43L160.99 342.4L164.75 345.45V358.87L155.59 369.55V391.82L136.04 391.74Z" fill="#DBDBDB"/>
<path d="M150.4 319.65L152.4 310.26L157.79 304.87L160.31 308.07L156.95 312.26L158.46 321.19L150.4 319.65Z" fill="#DBDBDB"/>
<path d="M202.21 391.69H463.66L414.33 288.67L390.6 278.49L365.41 229.27L348.8 211.41L334.16 178.82L317.02 181.6L287.71 249.88L271.34 262.09L244.76 332.42L218.58 357.85L202.21 391.69Z" fill="#EBEBEB"/>
<path d="M334.16 178.82L336.17 230.16L316.87 257.13L325.92 277.76L308 323.26L323.62 360.9L314.37 391.69H202.21L218.58 357.85L244.76 332.42L271.34 262.09L287.71 249.88L317.02 181.6L334.16 178.82Z" fill="#DBDBDB"/>
<path d="M329.34 310.03L342.8 286.63L341.74 276.71L346.76 269.59L352.83 289.81L334.62 310.03H329.34Z" fill="#DBDBDB"/>
<path d="M318.78 138.02L319.73 139.96L321.87 140.27L320.32 141.77L320.69 143.9L318.78 142.9L316.87 143.9L317.23 141.77L315.69 140.27L317.82 139.96L318.78 138.02Z" fill="#DBDBDB"/>
<path d="M139.27 234.81L140.23 236.74L142.36 237.05L140.82 238.56L141.18 240.69L139.27 239.68L137.36 240.69L137.72 238.56L136.18 237.05L138.31 236.74L139.27 234.81Z" fill="#DBDBDB"/>
<path d="M388.67 67.08L389.63 69.01L391.76 69.32L390.22 70.83L390.58 72.95L388.67 71.95L386.76 72.95L387.13 70.83L385.58 69.32L387.72 69.01L388.67 67.08Z" fill="#DBDBDB"/>
<path d="M174.18 70.02L175.14 71.95L177.27 72.26L175.73 73.77L176.09 75.89L174.18 74.89L172.27 75.89L172.64 73.77L171.09 72.26L173.23 71.95L174.18 70.02Z" fill="#DBDBDB"/>
<path d="M446.15 228.93L447.11 230.86L449.25 231.17L447.7 232.68L448.06 234.81L446.15 233.8L444.24 234.81L444.61 232.68L443.06 231.17L445.2 230.86L446.15 228.93Z" fill="#DBDBDB"/>
<path d="M235.71 134.69L236.66 136.63L238.8 136.94L237.25 138.44L237.62 140.57L235.71 139.57L233.79 140.57L234.16 138.44L232.61 136.94L234.75 136.63L235.71 134.69Z" fill="#DBDBDB"/>
<path d="M45.44 94.84L46.39 96.77L48.52 97.08L46.98 98.59L47.34 100.72L45.44 99.71L43.52 100.72L43.89 98.59L42.34 97.08L44.48 96.77L45.44 94.84Z" fill="#DBDBDB"/>
<path d="M86.65 210.39L87.6 212.32L89.74 212.63L88.19 214.14L88.56 216.27L86.65 215.26L84.74 216.27L85.1 214.14L83.56 212.63L85.69 212.32L86.65 210.39Z" fill="#DBDBDB"/>
<path d="M45.44 243.33L46.02 244.53L47.34 244.72L46.39 245.65L46.62 246.97L45.44 246.34L44.25 246.97L44.48 245.65L43.52 244.72L44.84 244.53L45.44 243.33Z" fill="#DBDBDB"/>
<path d="M179.72 121.92L180.31 123.12L181.63 123.31L180.68 124.24L180.91 125.56L179.72 124.94L178.54 125.56L178.77 124.24L177.81 123.31L179.13 123.12L179.72 121.92Z" fill="#DBDBDB"/>
<path d="M278.94 228.23L279.53 229.43L280.85 229.62L279.9 230.55L280.12 231.87L278.94 231.25L277.76 231.87L277.99 230.55L277.03 229.62L278.35 229.43L278.94 228.23Z" fill="#DBDBDB"/>
<path d="M55.8 105.2L56.4 106.4L57.72 106.59L56.76 107.52L56.99 108.84L55.8 108.22L54.62 108.84L54.85 107.52L53.9 106.59L55.22 106.4L55.8 105.2Z" fill="#DBDBDB"/>
<path d="M391.76 211.51L392.35 212.71L393.67 212.9L392.72 213.83L392.94 215.15L391.76 214.53L390.58 215.15L390.81 213.83L389.85 212.9L391.17 212.71L391.76 211.51Z" fill="#DBDBDB"/>
<path d="M94.62 267.77L95.21 268.97L96.53 269.16L95.58 270.09L95.8 271.41L94.62 270.79L93.44 271.41L93.67 270.09L92.71 269.16L94.03 268.97L94.62 267.77Z" fill="#DBDBDB"/>
<path d="M71.7 203.94L72.29 205.13L73.61 205.33L72.66 206.26L72.88 207.57L71.7 206.95L70.52 207.57L70.75 206.26L69.79 205.33L71.11 205.13L71.7 203.94Z" fill="#DBDBDB"/>
<path d="M265.48 112.66L266.07 113.85L267.39 114.04L266.43 114.97L266.66 116.29L265.48 115.67L264.3 116.29L264.52 114.97L263.56 114.04L264.88 113.85L265.48 112.66Z" fill="#DBDBDB"/>
<path d="M396.44 267.77L397.03 268.97L398.35 269.16L397.39 270.09L397.62 271.41L396.44 270.79L395.26 271.41L395.49 270.09L394.53 269.16L395.85 268.97L396.44 267.77Z" fill="#DBDBDB"/>
<path d="M455.75 153.62L456.34 154.82L457.66 155.01L456.7 155.94L456.93 157.26L455.75 156.64L454.57 157.26L454.79 155.94L453.84 155.01L455.16 154.82L455.75 153.62Z" fill="#DBDBDB"/>
<path d="M403.62 151.81L404.21 153L405.53 153.19L404.57 154.13L404.8 155.44L403.62 154.82L402.44 155.44L402.66 154.13L401.71 153.19L403.03 153L403.62 151.81Z" fill="#DBDBDB"/>
<path d="M365.35 99.4C363.173 103.198 360.084 106.394 356.363 108.698C352.641 111.002 348.403 112.343 344.033 112.598C339.663 112.853 335.298 112.015 331.333 110.16C327.369 108.305 323.929 105.491 321.325 101.972C318.72 98.4533 317.034 94.3411 316.419 90.0071C315.803 85.6731 316.277 81.254 317.799 77.1494C319.32 73.0447 321.84 69.3839 325.131 66.4979C328.423 63.6119 332.382 61.5917 336.65 60.62C333.324 62.1526 330.382 64.4072 328.037 67.2199C325.692 70.0326 324.003 73.3326 323.094 76.8799C322.184 80.4272 322.077 84.1326 322.78 87.7266C323.483 91.3205 324.978 94.7126 327.156 97.6562C329.335 100.6 332.142 103.021 335.373 104.743C338.605 106.465 342.18 107.446 345.838 107.613C349.496 107.78 353.146 107.129 356.521 105.709C359.896 104.288 362.912 102.133 365.35 99.4Z" fill="#DBDBDB"/>
<path d="M36.15 391.73L89.61 391.48L143.07 391.4L250 391.23L356.93 391.39L410.39 391.48L463.85 391.73L410.39 391.97L356.93 392.06L250 392.23L143.07 392.06L89.61 391.97L36.15 391.73Z" fill="#263238"/>
<path d="M469.37 400.69H30.63C29.4418 400.69 28.3023 400.218 27.4621 399.378C26.622 398.538 26.15 397.398 26.15 396.21C26.1487 395.621 26.2636 395.038 26.4883 394.494C26.713 393.95 27.0429 393.455 27.4592 393.039C27.8755 392.623 28.3699 392.293 28.914 392.068C29.4581 391.844 30.0413 391.729 30.63 391.73H469.37C470.558 391.73 471.698 392.202 472.538 393.042C473.378 393.882 473.85 395.022 473.85 396.21C473.847 397.397 473.374 398.535 472.535 399.375C471.695 400.215 470.557 400.687 469.37 400.69Z" fill="#455A64"/>
<path d="M380.15 409.55H103.58C101.106 409.55 99.1 411.556 99.1 414.03C99.1 416.504 101.106 418.51 103.58 418.51H380.15C382.624 418.51 384.63 416.504 384.63 414.03C384.63 411.556 382.624 409.55 380.15 409.55Z" fill="#455A64"/>
<path d="M355.31 436.23H153.82C153.231 436.231 152.648 436.116 152.104 435.892C151.56 435.667 151.065 435.337 150.649 434.921C150.233 434.505 149.903 434.01 149.678 433.466C149.454 432.922 149.339 432.339 149.34 431.75C149.34 430.562 149.812 429.422 150.652 428.582C151.492 427.742 152.632 427.27 153.82 427.27H355.31C355.898 427.27 356.481 427.386 357.024 427.611C357.568 427.836 358.062 428.166 358.478 428.582C358.894 428.998 359.224 429.492 359.449 430.036C359.674 430.579 359.79 431.162 359.79 431.75C359.791 432.339 359.676 432.922 359.452 433.466C359.227 434.01 358.897 434.505 358.481 434.921C358.064 435.337 357.57 435.667 357.026 435.892C356.482 436.116 355.899 436.231 355.31 436.23Z" fill="#455A64"/>
<path d="M84.91 409.55H63.86C61.3858 409.55 59.38 411.556 59.38 414.03C59.38 416.504 61.3858 418.51 63.86 418.51H84.91C87.3842 418.51 89.39 416.504 89.39 414.03C89.39 411.556 87.3842 409.55 84.91 409.55Z" fill="#455A64"/>
<path d="M390.13 436.23H379.6C379.012 436.23 378.429 436.114 377.886 435.889C377.342 435.664 376.848 435.334 376.432 434.918C376.016 434.502 375.686 434.008 375.461 433.464C375.236 432.921 375.12 432.338 375.12 431.75C375.123 430.563 375.595 429.425 376.435 428.585C377.275 427.745 378.413 427.273 379.6 427.27H390.13C391.317 427.273 392.455 427.745 393.295 428.585C394.135 429.425 394.607 430.563 394.61 431.75C394.61 432.338 394.494 432.921 394.269 433.464C394.044 434.008 393.714 434.502 393.298 434.918C392.882 435.334 392.388 435.664 391.844 435.889C391.301 436.114 390.718 436.23 390.13 436.23Z" fill="#455A64"/>
<path d="M233.48 409.64H117.59C118.783 409.64 119.928 409.166 120.772 408.322C121.616 407.478 122.09 406.333 122.09 405.14C122.09 403.947 121.616 402.802 120.772 401.958C119.928 401.114 118.783 400.64 117.59 400.64H233.48C232.286 400.64 231.142 401.114 230.298 401.958C229.454 402.802 228.98 403.947 228.98 405.14C228.98 406.333 229.454 407.478 230.298 408.322C231.142 409.166 232.286 409.64 233.48 409.64Z" fill="#455A64"/>
<path d="M353.83 409.64H277.83C279.023 409.64 280.168 409.166 281.012 408.322C281.856 407.478 282.33 406.333 282.33 405.14C282.33 403.947 281.856 402.802 281.012 401.958C280.168 401.114 279.023 400.64 277.83 400.64H353.83C352.636 400.64 351.492 401.114 350.648 401.958C349.804 402.802 349.33 403.947 349.33 405.14C349.33 406.333 349.804 407.478 350.648 408.322C351.492 409.166 352.636 409.64 353.83 409.64Z" fill="#455A64"/>
<path d="M296.34 427.37H179.73C180.923 427.37 182.068 426.896 182.912 426.052C183.756 425.208 184.23 424.063 184.23 422.87C184.23 421.677 183.756 420.532 182.912 419.688C182.068 418.844 180.923 418.37 179.73 418.37H296.34C295.147 418.37 294.002 418.844 293.158 419.688C292.314 420.532 291.84 421.677 291.84 422.87C291.84 424.063 292.314 425.208 293.158 426.052C294.002 426.896 295.147 427.37 296.34 427.37Z" fill="#455A64"/>
<path d="M66.13 391.65H345.14L294.21 266.09L269.71 253.69L243.71 193.71L226.55 171.94L211.44 132.22L193.74 135.61L163.48 218.82L146.59 233.7L110.06 319.41L83.03 350.4L66.13 391.65Z" fill="#455A64"/>
<path d="M211.44 132.22L213.51 194.79L193.59 227.65L202.93 252.8L184.43 308.25L200.56 354.13L191.01 391.65H66.13L83.03 350.4L110.06 319.41L146.59 233.7L163.48 218.82L193.74 135.61L211.44 132.22Z" fill="#37474F"/>
<path d="M206.46 292.13L220.36 263.61L219.27 251.52L224.45 242.84L230.72 267.49L211.91 292.13H206.46Z" fill="#37474F"/>
<path d="M433.87 391.67H227.28L254.56 324.64L273.85 309.17L293.74 251.45L309.83 239.59L325.12 204.87H340.22L373.77 275.96L390.85 287.03L433.87 391.67Z" fill="#37474F"/>
<path d="M227.28 391.67H316.88V334.07L337.3 293.75L327.57 251.45L340.22 204.87H325.12L309.83 239.59L293.74 251.45L273.85 309.17L254.56 324.64L227.28 391.67Z" fill="#263238"/>
<path d="M340.22 391.67L347.93 361.35L360.41 345.93L365.97 327.75L369.86 331.7V349.09L360.41 362.93V391.78L340.22 391.67Z" fill="#263238"/>
<path d="M355.04 298.27L357.11 286.1L362.67 279.12L365.28 283.27L361.8 288.69L363.37 300.27L355.04 298.27Z" fill="#263238"/>
<path d="M342.23 387.66H340.75V391.83H342.23V387.66Z" fill="#263238"/>
<path d="M270.62 387.66H269.14V391.83H270.62V387.66Z" fill="#263238"/>
<path d="M269.14 391.82L290.04 360.75L311.49 391.82H269.14Z" fill="#F0934E"/>
<path opacity="0.1" d="M269.14 391.82L290.04 360.75L311.49 391.82H269.14Z" fill="black"/>
<path d="M290.04 360.75H320.68L341.97 391.82H311.49L290.04 360.75Z" fill="#F0934E"/>
<path d="M303.1 366.4H317.1L321.36 372.62H307.39L303.1 366.4Z" fill="white"/>
<path opacity="0.3" d="M283.17 391.82H296.35L290.04 360.75L283.17 391.82Z" fill="black"/>
<path d="M312.22 387.66H310.74V391.83H312.22V387.66Z" fill="#263238"/>
<path d="M290 360.75C284.94 370.84 279.07 381.94 273.59 391.82C278.66 381.72 284.51 370.62 290 360.75Z" fill="white"/>
<path d="M290 360.75C295.43 370.57 301.22 381.61 306.24 391.65C300.81 381.82 295.01 370.79 290 360.75Z" fill="white"/>
<path d="M283.17 391.82C282.219 388.566 280.3 385.679 277.67 383.54L290 360.75L283.17 391.82Z" fill="#F0934E"/>
<path d="M296.35 391.82L290 360.75L302.88 384.75C301.172 385.06 299.611 385.918 298.433 387.193C297.255 388.469 296.524 390.093 296.35 391.82Z" fill="#F0934E"/>
<path d="M78.68 391.42C77.54 392.57 64.18 393.08 59.32 393.08C54.46 393.08 41.1 392.57 40 391.42C38.9 390.27 55 301.42 59.37 301.42C63.74 301.42 79.83 390.27 78.68 391.42Z" fill="#263238"/>
<path d="M79 368.79C75.7 370.05 63.47 375.03 60.83 376.48C60.83 375.92 60.83 375.37 60.83 374.81C63.78 373.07 66.75 371.36 69.7 369.63C72.9629 367.926 76.1309 366.047 79.19 364C79.33 363.89 79.25 363.6 79.05 363.68C75.8268 365.187 72.7096 366.911 69.72 368.84C66.72 370.6 63.72 372.42 60.77 374.25C60.77 369.99 60.7533 365.733 60.72 361.48C65.5411 359.48 70.2014 357.113 74.66 354.4C74.81 354.31 74.66 354.03 74.53 354.1C69.7579 356.018 65.138 358.294 60.71 360.91C60.71 358.7 60.71 356.48 60.71 354.27C60.58 342.87 60.56 331.47 60.27 320.07C63.17 318.61 66.16 317.32 69.06 315.85C69.25 315.75 69.06 315.42 68.91 315.5C65.97 316.64 63.14 318.01 60.25 319.27C60.09 313.39 59.87 307.52 59.51 301.64C59.51 301.6 59.4942 301.562 59.4661 301.534C59.4379 301.506 59.3998 301.49 59.36 301.49C59.3202 301.49 59.2821 301.506 59.2539 301.534C59.2258 301.562 59.21 301.6 59.21 301.64C58.8 312.56 58.83 323.49 58.97 334.42C55.97 332.02 52.76 329.9 49.71 327.57C49.59 327.48 49.47 327.68 49.59 327.77C52.79 330.2 55.78 332.9 58.98 335.32V337.17C55.72 335.68 52.41 334.3 49.12 332.89C48.86 332.78 48.63 333.15 48.9 333.27C52.25 334.88 55.59 336.52 58.99 338.04C59.06 343.45 59.16 348.86 59.23 354.27C59.35 363.72 59.56 373.17 59.76 382.62C53.6133 379.513 47.42 376.487 41.18 373.54C40.94 373.43 40.73 373.76 40.97 373.9C47.0615 377.384 53.3374 380.535 59.77 383.34C59.94 391.19 60.1 384.05 60.2 391.9C60.2146 391.989 60.2603 392.07 60.329 392.128C60.3977 392.187 60.4849 392.219 60.575 392.219C60.6651 392.219 60.7523 392.187 60.821 392.128C60.8897 392.07 60.9354 391.989 60.95 391.9C60.84 381.9 60.82 386.9 60.79 376.9C64.03 376.1 76.28 370.85 79.19 369.41C79.48 369.19 79.27 368.67 79 368.79Z" fill="#37474F"/>
<path d="M178.67 391.35C177.67 392.35 166.22 392.77 162.05 392.77C157.88 392.77 146.41 392.33 145.43 391.35C144.45 390.37 158.33 314.15 162.05 314.15C165.77 314.15 179.65 390.36 178.67 391.35Z" fill="#263238"/>
<path d="M178.9 371.93C176.07 373.01 165.57 377.28 163.31 378.53C163.31 378.05 163.31 377.53 163.31 377.09C165.84 375.6 168.38 374.09 170.92 372.65C173.736 371.177 176.471 369.551 179.11 367.78C179.24 367.69 179.17 367.44 179 367.51C176.236 368.804 173.563 370.284 171 371.94C168.42 373.45 165.87 375.01 163.33 376.58C163.33 372.93 163.33 369.27 163.28 365.58C167.431 363.867 171.444 361.835 175.28 359.5C175.41 359.43 175.28 359.18 175.17 359.25C171.079 360.897 167.118 362.849 163.32 365.09C163.32 363.19 163.32 361.29 163.32 359.39C163.21 349.61 163.19 339.82 162.94 330.04C165.43 328.79 168 327.68 170.48 326.42C170.65 326.34 170.48 326.05 170.36 326.12C167.83 327.12 165.36 328.27 162.92 329.36C162.79 324.36 162.6 319.27 162.29 314.23C162.29 314.196 162.276 314.162 162.252 314.138C162.228 314.114 162.194 314.1 162.16 314.1C162.126 314.1 162.092 314.114 162.068 314.138C162.044 314.162 162.03 314.196 162.03 314.23C161.68 323.6 161.71 332.98 161.83 342.35C159.25 340.3 156.5 338.48 153.88 336.48C153.78 336.4 153.68 336.58 153.78 336.65C156.52 338.74 159.09 341.05 161.84 343.13C161.84 343.66 161.84 344.19 161.84 344.72C159.04 343.44 156.21 342.25 153.38 341.04C153.16 340.95 152.96 341.27 153.19 341.37C156.07 342.76 158.93 344.16 161.85 345.46C161.91 350.11 161.99 354.75 162.05 359.39C162.16 367.5 162.34 375.61 162.51 383.72C157.23 381.053 151.917 378.457 146.57 375.93C146.36 375.84 146.18 376.12 146.39 376.24C151.614 379.234 156.999 381.938 162.52 384.34C162.67 391.08 162.81 385.99 162.89 392.73C162.89 392.815 162.924 392.896 162.984 392.956C163.044 393.016 163.125 393.05 163.21 393.05C163.295 393.05 163.376 393.016 163.436 392.956C163.496 392.896 163.53 392.815 163.53 392.73C163.43 384.14 163.42 387.37 163.4 378.78C166.18 378.09 176.69 373.59 179.19 372.35C179.35 372.27 179.17 371.82 178.9 371.93Z" fill="#37474F"/>
<path d="M70.36 391.75C71.19 392.58 80.84 392.95 84.36 392.95C87.88 392.95 97.53 392.58 98.36 391.75C99.19 390.92 87.5 326.75 84.36 326.75C81.22 326.75 69.53 390.92 70.36 391.75Z" fill="#263238"/>
<path d="M70.16 375.39C72.55 376.3 81.39 379.9 83.3 380.95V379.75C81.17 378.49 79.0299 377.25 76.8899 376.01C74.5214 374.762 72.2184 373.394 69.9899 371.91C69.8899 371.83 69.9899 371.61 70.0899 371.67C72.4197 372.763 74.6746 374.009 76.8399 375.4C79.0099 376.68 81.16 377.99 83.3 379.31C83.3 376.24 83.3 373.16 83.3 370.09C79.8339 368.647 76.4812 366.945 73.2699 365C73.1599 364.93 73.2699 364.73 73.3599 364.78C76.8122 366.166 80.155 367.811 83.3599 369.7C83.3599 368.1 83.3599 366.5 83.3599 364.9C83.4499 356.67 83.4599 348.42 83.6699 340.19C81.5799 339.13 79.4199 338.19 77.3299 337.14C77.1899 337.07 77.3299 336.83 77.4299 336.88C79.5599 337.71 81.6 338.7 83.6899 339.61C83.8033 335.363 83.9799 331.117 84.2199 326.87C84.2199 326.841 84.2315 326.813 84.2522 326.792C84.2728 326.772 84.3008 326.76 84.3299 326.76C84.3591 326.76 84.3871 326.772 84.4077 326.792C84.4284 326.813 84.4399 326.841 84.4399 326.87C84.74 334.76 84.7099 342.66 84.6099 350.56C86.7799 348.82 89.0999 347.29 91.3099 345.61C91.3899 345.54 91.4799 345.69 91.3899 345.75C89.0799 347.51 86.9199 349.46 84.6099 351.21C84.6099 351.66 84.6099 352.1 84.6099 352.55C86.9599 351.47 89.3499 350.47 91.7299 349.45C91.9199 349.37 92.0799 349.64 91.8899 349.73C89.4699 350.89 87.0499 352.08 84.5999 353.17C84.5399 357.08 84.4799 361 84.4299 364.9C84.3399 371.73 84.1899 378.56 84.0399 385.39C88.4799 383.14 92.9699 380.95 97.4699 378.83C97.6399 378.75 97.7899 378.99 97.6199 379.09C93.2083 381.602 88.6614 383.869 83.9999 385.88C83.8799 391.56 83.7599 387.14 83.6899 392.82C83.678 392.881 83.645 392.937 83.5966 392.977C83.5483 393.017 83.4876 393.038 83.425 393.038C83.3623 393.038 83.3016 393.017 83.2533 392.977C83.2049 392.937 83.1719 392.881 83.16 392.82C83.23 385.58 83.2499 388.43 83.2699 381.2C78.752 379.638 74.3222 377.832 69.9999 375.79C69.7799 375.68 69.93 375.31 70.16 375.39Z" fill="#455A64"/>
<path d="M424.77 391.22C423.71 392.28 411.38 392.75 406.9 392.75C402.42 392.75 390.08 392.28 389.02 391.22C387.96 390.16 402.9 308.22 406.9 308.22C410.9 308.22 425.83 390.16 424.77 391.22Z" fill="#263238"/>
<path d="M425 370.33C422 371.49 410.67 376.09 408.23 377.43C408.23 376.92 408.23 376.43 408.23 375.89L416.42 371.11C419.449 369.526 422.39 367.781 425.23 365.88C425.36 365.78 425.29 365.51 425.1 365.58C422.126 366.977 419.247 368.567 416.48 370.34C413.71 371.97 410.97 373.65 408.23 375.34C408.23 371.41 408.23 367.48 408.18 363.55C412.632 361.702 416.935 359.512 421.05 357C421.19 356.91 421.1 356.65 420.94 356.72C416.538 358.489 412.276 360.589 408.19 363C408.19 361 408.19 358.92 408.14 356.88C408.03 346.36 408.01 335.88 407.74 325.31C410.42 323.96 413.18 322.77 415.85 321.42C416.02 321.33 415.85 321.02 415.71 321.09C413 322.15 410.39 323.41 407.71 324.58C407.57 319.15 407.36 313.73 407.03 308.31C407.03 308.273 407.015 308.237 406.989 308.211C406.963 308.185 406.927 308.17 406.89 308.17C406.853 308.17 406.817 308.185 406.791 308.211C406.765 308.237 406.75 308.273 406.75 308.31C406.37 318.39 406.41 328.47 406.53 338.55C403.76 336.34 400.8 334.38 397.98 332.24C397.87 332.15 397.77 332.34 397.88 332.42C400.82 334.67 403.58 337.15 406.54 339.42C406.54 339.99 406.54 340.56 406.54 341.13C403.54 339.76 400.49 338.48 397.45 337.18C397.21 337.07 397 337.41 397.24 337.53C400.34 339.01 403.42 340.53 406.56 341.93C406.633 346.923 406.707 351.923 406.78 356.93C406.89 365.65 407.08 374.37 407.27 383.09C401.59 380.217 395.873 377.423 390.12 374.71C389.9 374.61 389.71 374.92 389.93 375.04C395.552 378.256 401.344 381.167 407.28 383.76C407.44 391 407.59 385.53 407.68 392.76C407.68 392.85 407.716 392.937 407.78 393C407.843 393.064 407.93 393.1 408.02 393.1C408.11 393.1 408.197 393.064 408.26 393C408.324 392.937 408.36 392.85 408.36 392.76C408.26 383.52 408.25 386.99 408.22 377.76C411.22 377.02 422.52 372.18 425.22 370.86C425.51 370.7 425.31 370.22 425 370.33Z" fill="#455A64"/>
<path d="M373.77 391.22C372.71 392.28 360.38 392.75 355.89 392.75C351.4 392.75 339.08 392.28 338.02 391.22C336.96 390.16 351.89 308.22 355.89 308.22C359.89 308.22 374.82 390.16 373.77 391.22Z" fill="#263238"/>
<path d="M374 370.33C371 371.49 359.67 376.09 357.23 377.43V375.89C359.95 374.29 362.677 372.697 365.41 371.11C368.439 369.526 371.38 367.781 374.22 365.88C374.35 365.78 374.28 365.51 374.1 365.58C371.125 366.975 368.245 368.565 365.48 370.34C362.7 371.97 359.96 373.65 357.22 375.34C357.22 371.41 357.22 367.48 357.17 363.55C361.625 361.7 365.931 359.51 370.05 357C370.19 356.91 370.05 356.65 369.93 356.72C365.529 358.491 361.267 360.591 357.18 363C357.18 360.96 357.18 358.92 357.18 356.88C357.06 346.36 357.04 335.88 356.78 325.31C359.45 323.96 362.21 322.77 364.88 321.42C365.06 321.33 364.94 321.02 364.75 321.09C362.03 322.15 359.42 323.41 356.75 324.58C356.6 319.15 356.39 313.73 356.06 308.31C356.06 308.273 356.045 308.237 356.019 308.211C355.993 308.185 355.957 308.17 355.92 308.17C355.883 308.17 355.847 308.185 355.821 308.211C355.795 308.237 355.78 308.273 355.78 308.31C355.41 318.39 355.44 328.47 355.57 338.55C352.79 336.34 349.84 334.38 347.02 332.24C346.91 332.15 346.8 332.34 346.91 332.42C349.86 334.67 352.62 337.15 355.58 339.42C355.58 339.99 355.58 340.56 355.58 341.13C352.58 339.76 349.52 338.48 346.48 337.18C346.25 337.07 346.03 337.41 346.28 337.53C349.37 339.01 352.46 340.53 355.59 341.93C355.66 346.93 355.75 351.93 355.81 356.93C355.92 365.65 356.12 374.37 356.3 383.09C350.627 380.217 344.91 377.423 339.15 374.71C338.93 374.61 338.74 374.92 338.96 375.04C344.586 378.256 350.381 381.167 356.32 383.76C356.47 391 356.62 385.53 356.71 392.76C356.724 392.841 356.766 392.915 356.829 392.969C356.892 393.022 356.972 393.051 357.055 393.051C357.138 393.051 357.218 393.022 357.281 392.969C357.344 392.915 357.386 392.841 357.4 392.76C357.3 383.52 357.28 386.99 357.25 377.76C360.25 377.02 371.55 372.18 374.25 370.86C374.5 370.7 374.31 370.22 374 370.33Z" fill="#455A64"/>
<path d="M367.19 392C367.93 392.74 376.55 393.07 379.68 393.07C382.81 393.07 391.44 392.74 392.18 392C392.92 391.26 382.48 334 379.68 334C376.88 334 366.45 391.27 367.19 392Z" fill="#263238"/>
<path d="M367 377.41C369.13 378.22 377 381.41 378.72 382.41V381.33C376.82 380.21 374.91 379.11 373 378C370.888 376.887 368.835 375.665 366.85 374.34C366.75 374.27 366.85 374.08 366.93 374.13C369.001 375.107 371.005 376.219 372.93 377.46C374.87 378.6 376.78 379.77 378.7 380.95C378.7 378.2 378.7 375.46 378.7 372.71C375.587 371.421 372.578 369.893 369.7 368.14C369.6 368.09 369.7 367.9 369.78 367.95C372.855 369.189 375.834 370.656 378.69 372.34V368.06C378.77 360.71 378.79 353.35 378.97 346C377.1 345.06 375.18 344.23 373.31 343.28C373.19 343.22 373.31 343 373.4 343.05C375.3 343.79 377.13 344.67 378.99 345.49C379.09 341.7 379.23 337.91 379.47 334.12C379.477 334.1 379.489 334.083 379.506 334.07C379.523 334.058 379.544 334.051 379.565 334.051C379.586 334.051 379.607 334.058 379.624 334.07C379.641 334.083 379.653 334.1 379.66 334.12C379.92 341.12 379.9 348.21 379.81 355.26C381.75 353.71 383.81 352.34 385.81 350.84C385.88 350.78 385.96 350.91 385.88 350.97C383.82 352.54 381.88 354.28 379.83 355.84C379.83 356.24 379.83 356.64 379.83 357.03C381.93 356.03 384.06 355.18 386.19 354.27C386.35 354.2 386.5 354.44 386.33 354.52C384.17 355.52 382.01 356.61 379.82 357.59C379.82 361.08 379.71 364.59 379.67 368.06C379.59 374.16 379.46 380.25 379.32 386.34C383.32 384.34 387.32 382.34 391.32 380.49C391.47 380.42 391.61 380.64 391.45 380.72C387.525 382.972 383.479 385.005 379.33 386.81C379.22 391.88 379.11 387.81 379.05 392.89C379.05 392.954 379.025 393.015 378.98 393.06C378.935 393.105 378.874 393.13 378.81 393.13C378.746 393.13 378.685 393.105 378.64 393.06C378.595 393.015 378.57 392.954 378.57 392.89C378.64 386.43 378.65 389.09 378.67 382.63C374.63 381.234 370.667 379.621 366.8 377.8C366.68 377.67 366.81 377.33 367 377.41Z" fill="#37474F"/>
<path d="M127.52 391.89C128.26 392.63 136.88 392.96 140.02 392.96C143.16 392.96 151.77 392.63 152.51 391.89C153.25 391.15 142.81 333.89 140.02 333.89C137.23 333.89 126.78 391.15 127.52 391.89Z" fill="#263238"/>
<path d="M127.35 377.3C129.48 378.11 137.35 381.3 139.07 382.3C139.07 381.94 139.07 381.58 139.07 381.22L133.35 377.88C131.232 376.773 129.175 375.551 127.19 374.22C127.1 374.15 127.19 373.96 127.28 374.02C129.353 374.989 131.358 376.098 133.28 377.34C135.22 378.48 137.14 379.65 139.05 380.83C139.05 378.09 139.05 375.34 139.05 372.6C135.939 371.307 132.93 369.779 130.05 368.03C129.95 367.97 130.05 367.79 130.13 367.84C133.206 369.079 136.184 370.546 139.04 372.23C139.04 370.8 139.04 369.37 139.04 367.95C139.11 360.6 139.13 353.24 139.32 345.89C137.45 344.89 135.52 344.11 133.65 343.16C133.53 343.1 133.65 342.89 133.74 342.94C135.64 343.68 137.47 344.56 139.33 345.38C139.43 341.58 139.58 337.79 139.81 334.01C139.805 333.995 139.804 333.979 139.806 333.963C139.809 333.948 139.815 333.933 139.824 333.92C139.833 333.907 139.845 333.897 139.86 333.89C139.874 333.883 139.889 333.879 139.905 333.879C139.921 333.879 139.936 333.883 139.95 333.89C139.965 333.897 139.977 333.907 139.986 333.92C139.995 333.933 140.001 333.948 140.004 333.963C140.006 333.979 140.005 333.995 140 334.01C140.27 341.01 140.24 348.09 140.16 355.14C142.09 353.59 144.16 352.23 146.16 350.73C146.24 350.67 146.31 350.8 146.23 350.85C144.17 352.42 142.23 354.16 140.18 355.73C140.18 356.12 140.18 356.52 140.18 356.92C142.28 355.92 144.41 355.07 146.54 354.16C146.7 354.08 146.85 354.32 146.68 354.4C144.52 355.4 142.36 356.5 140.17 357.48L140.02 367.95C139.94 374.04 139.81 380.13 139.68 386.23C143.64 384.23 147.64 382.28 151.68 380.38C151.83 380.3 151.97 380.52 151.82 380.61C147.887 382.852 143.838 384.885 139.69 386.7C139.58 391.76 139.47 387.82 139.41 392.89C139.41 392.954 139.385 393.015 139.34 393.06C139.295 393.105 139.234 393.13 139.17 393.13C139.106 393.13 139.045 393.105 139 393.06C138.955 393.015 138.93 392.954 138.93 392.89C139 386.43 139.01 388.97 139.03 382.51C134.99 381.117 131.027 379.508 127.16 377.69C127 377.55 127.15 377.22 127.35 377.3Z" fill="#37474F"/>
<path d="M201.72 391.78C202.46 392.52 211.08 392.85 214.21 392.85C217.34 392.85 225.97 392.52 226.71 391.78C227.45 391.04 217.01 333.78 214.21 333.78C211.41 333.78 201 391 201.72 391.78Z" fill="#263238"/>
<path d="M201.55 377.18C203.68 377.99 211.55 381.18 213.27 382.18V381.1C211.37 379.98 209.46 378.88 207.55 377.77C205.64 376.66 203.31 375.51 201.4 374.11C201.3 374.04 201.4 373.85 201.48 373.9C203.551 374.877 205.555 375.989 207.48 377.23C209.42 378.37 211.33 379.54 213.25 380.72C213.25 377.97 213.25 375.23 213.25 372.48C210.137 371.191 207.128 369.663 204.25 367.91C204.15 367.85 204.25 367.67 204.33 367.72C207.406 368.959 210.384 370.426 213.24 372.11V367.83C213.32 360.48 213.34 353.12 213.52 345.77C211.65 344.83 209.73 344 207.86 343.05C207.74 342.99 207.86 342.77 207.95 342.82C209.85 343.56 211.68 344.44 213.54 345.26C213.64 341.47 213.79 337.68 214.02 333.89C214.027 333.87 214.039 333.853 214.056 333.84C214.073 333.828 214.094 333.821 214.115 333.821C214.136 333.821 214.157 333.828 214.174 333.84C214.191 333.853 214.203 333.87 214.21 333.89C214.47 340.89 214.45 347.98 214.36 355.03C216.3 353.48 218.36 352.11 220.36 350.61C220.44 350.55 220.51 350.68 220.43 350.74C218.37 352.31 216.43 354.05 214.43 355.61C214.43 356.01 214.43 356.41 214.43 356.8C216.53 355.8 218.66 354.95 220.79 354.04C220.95 353.97 221.1 354.21 220.93 354.29C218.77 355.29 216.61 356.38 214.42 357.36C214.37 360.85 214.31 364.36 214.27 367.83C214.19 373.93 214.06 380.02 213.93 386.11C217.93 384.11 221.93 382.11 225.93 380.26C226.08 380.19 226.22 380.4 226.06 380.49C222.133 382.738 218.087 384.771 213.94 386.58C213.83 391.65 213.72 387.82 213.66 392.89C213.66 392.954 213.635 393.015 213.59 393.06C213.545 393.105 213.484 393.13 213.42 393.13C213.356 393.13 213.295 393.105 213.25 393.06C213.205 393.015 213.18 392.954 213.18 392.89C213.25 386.43 213.26 388.89 213.28 382.4C209.24 381.004 205.277 379.391 201.41 377.57C201.21 377.44 201.34 377.1 201.55 377.18Z" fill="#37474F"/>
<path d="M435.09 391.78C435.83 392.52 444.45 392.85 447.58 392.85C450.71 392.85 459.33 392.52 460.07 391.78C460.81 391.04 450.37 333.78 447.58 333.78C444.79 333.78 434.35 391 435.09 391.78Z" fill="#263238"/>
<path d="M434.92 377.18C437.04 377.99 444.92 381.18 446.64 382.18V381.1C444.74 379.98 442.83 378.88 440.92 377.77C438.806 376.655 436.75 375.434 434.76 374.11C434.67 374.04 434.76 373.85 434.85 373.9C436.922 374.874 438.927 375.987 440.85 377.23C442.79 378.37 444.71 379.54 446.62 380.72C446.62 377.97 446.62 375.23 446.62 372.48C443.505 371.195 440.496 369.667 437.62 367.91C437.52 367.85 437.62 367.67 437.7 367.72C440.775 368.959 443.754 370.426 446.61 372.11C446.61 370.69 446.61 369.26 446.61 367.83C446.69 360.48 446.7 353.12 446.89 345.77C445.02 344.83 443.09 344 441.22 343.05C441.1 342.99 441.22 342.77 441.32 342.82C443.22 343.56 445.04 344.44 446.9 345.26C447.01 341.47 447.15 337.68 447.38 333.89C447.38 333.863 447.39 333.838 447.409 333.819C447.428 333.801 447.453 333.79 447.48 333.79C447.506 333.79 447.532 333.801 447.551 333.819C447.569 333.838 447.58 333.863 447.58 333.89C447.84 340.89 447.82 347.98 447.73 355.03C449.67 353.48 451.73 352.11 453.73 350.61C453.81 350.55 453.88 350.68 453.81 350.74C451.75 352.31 449.81 354.05 447.75 355.61C447.75 356.01 447.75 356.41 447.75 356.8C449.85 355.8 451.98 354.95 454.1 354.04C454.27 353.97 454.42 354.21 454.25 354.29C452.08 355.29 449.93 356.38 447.74 357.36C447.69 360.85 447.63 364.36 447.58 367.83C447.51 373.93 447.37 380.02 447.24 386.11C451.24 384.11 455.24 382.11 459.24 380.26C459.27 380.243 459.307 380.238 459.34 380.248C459.374 380.257 459.403 380.279 459.42 380.31C459.437 380.34 459.442 380.377 459.432 380.41C459.423 380.444 459.4 380.473 459.37 380.49C455.44 382.738 451.391 384.771 447.24 386.58C447.13 391.65 447.03 387.82 446.96 392.89C446.96 393.19 446.48 393.19 446.49 392.89C446.56 386.43 446.57 388.89 446.59 382.4C442.548 381.007 438.586 379.395 434.72 377.57C434.57 377.44 434.71 377.1 434.92 377.18Z" fill="#37474F"/>
<path d="M177.06 173.3C176.812 173.022 176.548 172.758 176.27 172.51C176.025 172.235 175.765 171.975 175.49 171.73C175.244 171.449 174.981 171.186 174.7 170.94C174.454 170.659 174.191 170.396 173.91 170.15C173.665 169.875 173.405 169.615 173.13 169.37C172.882 169.092 172.618 168.828 172.34 168.58C172.095 168.305 171.835 168.045 171.56 167.8C171.312 167.522 171.048 167.258 170.77 167.01C170.525 166.735 170.265 166.475 169.99 166.23C169.184 165.341 168.242 164.585 167.2 163.99V85.29C167.2 84.88 166.99 84.67 166.99 84.29C167.042 83.8618 166.969 83.4278 166.78 83.04C166.78 82.83 166.58 82.41 166.58 82.2C166.472 81.7732 166.332 81.3553 166.16 80.95C165.935 80.7214 165.788 80.4273 165.74 80.11C165.503 79.7425 165.221 79.4065 164.9 79.11C164.69 78.9 164.49 78.49 164.28 78.27L163.44 77.44C163.44 77.31 163.28 77.18 163.1 77.1L162.69 76.68H162.64C162.64 76.55 162.48 76.43 162.3 76.34L161.89 75.93C161.89 75.8 161.73 75.67 161.55 75.59L161 75C161 74.87 160.84 74.74 160.66 74.66L160.25 74.25C160.25 74.13 160.09 74 159.91 73.91L159.49 73.5C159.49 73.37 159.33 73.24 159.15 73.16L158.74 72.74C158.74 72.62 158.58 72.49 158.4 72.4L157.98 71.99C157.98 71.86 157.82 71.73 157.64 71.65L157 71C157 70.87 156.84 70.75 156.66 70.66L156.25 70.25C156.25 70.12 156.09 69.99 155.91 69.91L155.45 69.45C155.45 69.25 155.04 69.04 154.83 69.04C154.833 69.0121 154.83 68.9839 154.821 68.9573C154.812 68.9307 154.798 68.9062 154.779 68.8855C154.76 68.8647 154.737 68.8482 154.711 68.8369C154.686 68.8256 154.658 68.8199 154.63 68.82C154.2 68.62 153.99 68.41 153.57 68.2C153.36 67.99 152.95 67.78 152.57 67.36C152.35 67.36 151.94 67.16 151.73 67.16C151.31 66.95 150.73 66.95 150.48 66.73C150.115 66.7617 149.748 66.6925 149.42 66.53H145.88C145.631 66.6904 145.335 66.761 145.04 66.73C144.42 66.95 144.04 66.95 143.79 67.16C143.38 67.16 143.17 67.36 142.95 67.78C142.501 67.7932 142.066 67.9394 141.7 68.2C141.5 68.41 141.08 68.62 140.86 68.82C140.598 69.1259 140.249 69.3455 139.86 69.45C139.71 69.7674 139.499 70.0527 139.24 70.29C139.03 70.5 139.03 70.7 138.82 70.7L61.43 166.71C59.5929 168.909 58.672 171.731 58.8582 174.59C59.0443 177.449 60.3233 180.128 62.43 182.07C62.6702 182.359 62.9345 182.626 63.22 182.87C63.4664 183.153 63.7339 183.417 64.02 183.66C64.2629 183.946 64.5269 184.214 64.81 184.46C65.0564 184.743 65.3239 185.007 65.61 185.25C65.8503 185.539 66.1146 185.806 66.4 186.05C66.6463 186.336 66.9137 186.604 67.2 186.85C67.4439 187.135 67.7115 187.4 68 187.64C68.2402 187.929 68.5045 188.196 68.79 188.44C69.0364 188.723 69.3039 188.987 69.59 189.23C70.0821 189.786 70.6281 190.292 71.22 190.74C73.183 192.445 75.7216 193.339 78.32 193.24H136.14V201.16C136.121 202.771 136.443 204.368 137.086 205.845C137.729 207.322 138.678 208.646 139.87 209.73C140.11 210 140.36 210.25 140.63 210.5C140.88 210.77 141.14 211.03 141.41 211.27C141.65 211.54 141.91 211.79 142.17 212.04C142.42 212.31 142.68 212.57 142.95 212.81C143.19 213.08 143.45 213.33 143.71 213.58C143.955 213.852 144.215 214.109 144.49 214.35C144.73 214.61 144.99 214.87 145.25 215.11C145.491 215.385 145.748 215.645 146.02 215.89C146.27 216.15 146.52 216.41 146.79 216.65C148.365 218.347 150.413 219.532 152.67 220.049C154.926 220.567 157.286 220.394 159.443 219.553C161.6 218.712 163.454 217.241 164.764 215.332C166.074 213.424 166.78 211.165 166.79 208.85V193.24H168.88C171.217 193.295 173.514 192.632 175.462 191.34C177.409 190.048 178.914 188.19 179.772 186.016C180.63 183.842 180.8 181.457 180.26 179.183C179.719 176.909 178.494 174.856 176.75 173.3H177.06ZM136.18 128.58V162.33H109L136.18 128.58Z" fill="#F0934E"/>
<path opacity="0.1" d="M177.06 173.3C176.812 173.022 176.548 172.758 176.27 172.51C176.025 172.235 175.765 171.975 175.49 171.73C175.244 171.449 174.981 171.186 174.7 170.94C174.454 170.659 174.191 170.396 173.91 170.15C173.665 169.875 173.405 169.615 173.13 169.37C172.882 169.092 172.618 168.828 172.34 168.58C172.095 168.305 171.835 168.045 171.56 167.8C171.312 167.522 171.048 167.258 170.77 167.01C170.525 166.735 170.265 166.475 169.99 166.23C169.184 165.341 168.242 164.585 167.2 163.99V85.29C167.2 84.88 166.99 84.67 166.99 84.29C167.042 83.8618 166.969 83.4278 166.78 83.04C166.78 82.83 166.58 82.41 166.58 82.2C166.472 81.7732 166.332 81.3553 166.16 80.95C165.935 80.7214 165.788 80.4273 165.74 80.11C165.503 79.7425 165.221 79.4065 164.9 79.11C164.69 78.9 164.49 78.49 164.28 78.27L163.44 77.44C163.44 77.31 163.28 77.18 163.1 77.1L162.69 76.68H162.64C162.64 76.55 162.48 76.43 162.3 76.34L161.89 75.93C161.89 75.8 161.73 75.67 161.55 75.59L161 75C161 74.87 160.84 74.74 160.66 74.66L160.25 74.25C160.25 74.13 160.09 74 159.91 73.91L159.49 73.5C159.49 73.37 159.33 73.24 159.15 73.16L158.74 72.74C158.74 72.62 158.58 72.49 158.4 72.4L157.98 71.99C157.98 71.86 157.82 71.73 157.64 71.65L157 71C157 70.87 156.84 70.75 156.66 70.66L156.25 70.25C156.25 70.12 156.09 69.99 155.91 69.91L155.45 69.45C155.45 69.25 155.04 69.04 154.83 69.04C154.833 69.0121 154.83 68.9839 154.821 68.9573C154.812 68.9307 154.798 68.9062 154.779 68.8855C154.76 68.8647 154.737 68.8482 154.711 68.8369C154.686 68.8256 154.658 68.8199 154.63 68.82C154.2 68.62 153.99 68.41 153.57 68.2C153.36 67.99 152.95 67.78 152.57 67.36C152.35 67.36 151.94 67.16 151.73 67.16C151.31 66.95 150.73 66.95 150.48 66.73C150.115 66.7617 149.748 66.6925 149.42 66.53H145.88C145.631 66.6904 145.335 66.761 145.04 66.73C144.42 66.95 144.04 66.95 143.79 67.16C143.38 67.16 143.17 67.36 142.95 67.78C142.501 67.7932 142.066 67.9394 141.7 68.2C141.5 68.41 141.08 68.62 140.86 68.82C140.598 69.1259 140.249 69.3455 139.86 69.45C139.71 69.7674 139.499 70.0527 139.24 70.29C139.03 70.5 139.03 70.7 138.82 70.7L61.43 166.71C59.5929 168.909 58.672 171.731 58.8582 174.59C59.0443 177.449 60.3233 180.128 62.43 182.07C62.6702 182.359 62.9345 182.626 63.22 182.87C63.4664 183.153 63.7339 183.417 64.02 183.66C64.2629 183.946 64.5269 184.214 64.81 184.46C65.0564 184.743 65.3239 185.007 65.61 185.25C65.8503 185.539 66.1146 185.806 66.4 186.05C66.6463 186.336 66.9137 186.604 67.2 186.85C67.4439 187.135 67.7115 187.4 68 187.64C68.2402 187.929 68.5045 188.196 68.79 188.44C69.0364 188.723 69.3039 188.987 69.59 189.23C70.0821 189.786 70.6281 190.292 71.22 190.74C73.183 192.445 75.7216 193.339 78.32 193.24H136.14V201.16C136.121 202.771 136.443 204.368 137.086 205.845C137.729 207.322 138.678 208.646 139.87 209.73C140.11 210 140.36 210.25 140.63 210.5C140.88 210.77 141.14 211.03 141.41 211.27C141.65 211.54 141.91 211.79 142.17 212.04C142.42 212.31 142.68 212.57 142.95 212.81C143.19 213.08 143.45 213.33 143.71 213.58C143.955 213.852 144.215 214.109 144.49 214.35C144.73 214.61 144.99 214.87 145.25 215.11C145.491 215.385 145.748 215.645 146.02 215.89C146.27 216.15 146.52 216.41 146.79 216.65C148.365 218.347 150.413 219.532 152.67 220.049C154.926 220.567 157.286 220.394 159.443 219.553C161.6 218.712 163.454 217.241 164.764 215.332C166.074 213.424 166.78 211.165 166.79 208.85V193.24H168.88C171.217 193.295 173.514 192.632 175.462 191.34C177.409 190.048 178.914 188.19 179.772 186.016C180.63 183.842 180.8 181.457 180.26 179.183C179.719 176.909 178.494 174.856 176.75 173.3H177.06ZM136.18 128.58V162.33H109L136.18 128.58Z" fill="black"/>
<path d="M172.92 173.81C172.918 175.335 172.612 176.844 172.021 178.249C171.43 179.654 170.566 180.928 169.478 181.997C168.39 183.065 167.101 183.906 165.685 184.472C164.269 185.037 162.754 185.315 161.23 185.29H159.14V201.16C159.14 204.21 157.928 207.135 155.772 209.292C153.615 211.448 150.69 212.66 147.64 212.66C144.59 212.66 141.665 211.448 139.508 209.292C137.352 207.135 136.14 204.21 136.14 201.16V185.29H70.4C67.8005 185.386 65.262 184.488 63.3 182.78C62.0905 181.871 61.0781 180.726 60.3245 179.414C59.5708 178.102 59.0916 176.651 58.9158 175.148C58.7399 173.645 58.8713 172.122 59.3018 170.672C59.7322 169.221 60.4529 167.874 61.42 166.71L138.68 70.65C138.89 70.65 138.89 70.45 139.1 70.24C139.359 70.0007 139.573 69.716 139.73 69.4C140.112 69.2853 140.457 69.0713 140.73 68.78C140.94 68.57 141.36 68.36 141.56 68.15C141.928 67.8864 142.367 67.74 142.82 67.73C143.02 67.31 143.23 67.11 143.65 67.11C143.86 66.9 144.28 66.9 144.91 66.69C145.203 66.7199 145.497 66.6455 145.74 66.48H149.29C149.598 66.641 149.944 66.7137 150.29 66.69C150.5 66.9 151.13 66.9 151.55 67.11C151.76 67.11 152.17 67.31 152.38 67.31C152.8 67.73 153.22 67.94 153.38 68.15C153.8 68.36 154.01 68.57 154.43 68.78C154.486 68.78 154.539 68.8021 154.579 68.8415C154.618 68.8809 154.64 68.9343 154.64 68.99C154.85 68.99 155.27 69.19 155.27 69.4L156.1 70.24C156.31 70.45 156.52 70.86 156.73 71.07C157.046 71.3871 157.324 71.7394 157.56 72.12C157.613 72.4328 157.759 72.7221 157.98 72.95C158.152 73.3588 158.292 73.78 158.4 74.21C158.4 74.41 158.6 74.83 158.6 75.04C158.788 75.4279 158.861 75.8618 158.81 76.29C158.81 76.71 159.02 76.92 159.02 77.29V162.29H161.11C162.643 162.266 164.166 162.546 165.591 163.113C167.015 163.68 168.314 164.523 169.411 165.593C170.509 166.664 171.384 167.941 171.986 169.351C172.588 170.761 172.906 172.277 172.92 173.81ZM136.18 110.75L94.62 162.32H136.18V110.75Z" fill="#F0934E"/>
<path d="M295.07 97.61C292.717 94.0087 289.978 90.6756 286.9 87.67C286.79 87.5435 286.67 87.4264 286.54 87.32C286.509 87.2785 286.472 87.2415 286.43 87.21C286.338 87.1052 286.242 87.005 286.14 86.91C285.87 86.62 285.59 86.35 285.31 86.08L285.24 86.01L284.95 85.73C284.919 85.6885 284.882 85.6515 284.84 85.62L284.55 85.31C284.28 85.03 283.99 84.76 283.72 84.49C283.701 84.4592 283.673 84.4348 283.64 84.42L283.36 84.14C283.329 84.0985 283.292 84.0615 283.25 84.03C283.158 83.9194 283.058 83.8158 282.95 83.72C282.69 83.44 282.4 83.17 282.13 82.89L282.05 82.83L281.77 82.54L281.66 82.44C281.56 82.33 281.47 82.23 281.36 82.13C281.1 81.84 280.81 81.58 280.54 81.3L280.46 81.24C280.374 81.1337 280.276 81.0365 280.17 80.95C280.139 80.9142 280.106 80.8808 280.07 80.85C271.69 72.2 260.75 66.48 248.48 66.48C231.99 66.48 218.42 76.3 209.64 89.65C200.46 103.02 195.64 120.36 195.45 139.56C195.66 158.56 200.45 176.1 209.64 189.47C211.994 193.005 214.705 196.289 217.73 199.27L218.14 199.67C218.152 199.676 218.163 199.685 218.171 199.695C218.18 199.705 218.186 199.717 218.19 199.73L218.94 200.47C219.06 200.61 219.19 200.73 219.32 200.86L219.73 201.26L219.79 201.32L220.53 202.06L220.91 202.45C221.05 202.59 221.19 202.72 221.32 202.86C221.34 202.854 221.36 202.854 221.38 202.86L222.12 203.6C222.25 203.74 222.37 203.87 222.5 203.99L222.92 204.4C222.941 204.411 222.959 204.429 222.97 204.45L223.71 205.19L224.09 205.58L224.51 205.99C224.531 206.001 224.549 206.019 224.56 206.04C224.8 206.3 225.06 206.54 225.3 206.78C233.56 215.03 244.2 220.55 256.44 220.55C272.51 220.55 286.3 210.55 295.07 197.37C304.07 184.01 309.07 166.47 309.07 147.47C309.06 128.31 304.05 111 295.07 97.61ZM267.9 176.52C261.84 185.52 254.96 189.47 248.48 189.47C244.509 189.377 240.665 188.053 237.48 185.68C237.19 185.3 236.9 184.89 236.61 184.48C230.77 175.71 226.61 162.35 226.61 147.48C226.61 132.48 230.79 119.29 236.61 110.31C242.88 101.54 249.98 97.37 256.45 97.57C260.219 97.5512 263.893 98.7547 266.92 101C267.25 101.44 267.58 101.89 267.92 102.35C273.77 111.35 277.92 124.49 277.92 139.52C277.93 154.39 273.75 167.75 267.9 176.52Z" fill="#F0934E"/>
<path opacity="0.1" d="M295.07 97.61C292.717 94.0087 289.978 90.6756 286.9 87.67C286.79 87.5435 286.67 87.4264 286.54 87.32C286.509 87.2785 286.472 87.2415 286.43 87.21C286.338 87.1052 286.242 87.005 286.14 86.91C285.87 86.62 285.59 86.35 285.31 86.08L285.24 86.01L284.95 85.73C284.919 85.6885 284.882 85.6515 284.84 85.62L284.55 85.31C284.28 85.03 283.99 84.76 283.72 84.49C283.701 84.4592 283.673 84.4348 283.64 84.42L283.36 84.14C283.329 84.0985 283.292 84.0615 283.25 84.03C283.158 83.9194 283.058 83.8158 282.95 83.72C282.69 83.44 282.4 83.17 282.13 82.89L282.05 82.83L281.77 82.54L281.66 82.44C281.56 82.33 281.47 82.23 281.36 82.13C281.1 81.84 280.81 81.58 280.54 81.3L280.46 81.24C280.374 81.1337 280.276 81.0365 280.17 80.95C280.139 80.9142 280.106 80.8808 280.07 80.85C271.69 72.2 260.75 66.48 248.48 66.48C231.99 66.48 218.42 76.3 209.64 89.65C200.46 103.02 195.64 120.36 195.45 139.56C195.66 158.56 200.45 176.1 209.64 189.47C211.994 193.005 214.705 196.289 217.73 199.27L218.14 199.67C218.152 199.676 218.163 199.685 218.171 199.695C218.18 199.705 218.186 199.717 218.19 199.73L218.94 200.47C219.06 200.61 219.19 200.73 219.32 200.86L219.73 201.26L219.79 201.32L220.53 202.06L220.91 202.45C221.05 202.59 221.19 202.72 221.32 202.86C221.34 202.854 221.36 202.854 221.38 202.86L222.12 203.6C222.25 203.74 222.37 203.87 222.5 203.99L222.92 204.4C222.941 204.411 222.959 204.429 222.97 204.45L223.71 205.19L224.09 205.58L224.51 205.99C224.531 206.001 224.549 206.019 224.56 206.04C224.8 206.3 225.06 206.54 225.3 206.78C233.56 215.03 244.2 220.55 256.44 220.55C272.51 220.55 286.3 210.55 295.07 197.37C304.07 184.01 309.07 166.47 309.07 147.47C309.06 128.31 304.05 111 295.07 97.61ZM267.9 176.52C261.84 185.52 254.96 189.47 248.48 189.47C244.509 189.377 240.665 188.053 237.48 185.68C237.19 185.3 236.9 184.89 236.61 184.48C230.77 175.71 226.61 162.35 226.61 147.48C226.61 132.48 230.79 119.29 236.61 110.31C242.88 101.54 249.98 97.37 256.45 97.57C260.219 97.5512 263.893 98.7547 266.92 101C267.25 101.44 267.58 101.89 267.92 102.35C273.77 111.35 277.92 124.49 277.92 139.52C277.93 154.39 273.75 167.75 267.9 176.52Z" fill="black"/>
<path d="M195.45 139.56C195.66 120.35 200.45 103.02 209.65 89.66C218.41 76.29 231.99 66.48 248.48 66.48C264.56 66.48 278.34 76.29 287.12 89.66C296.12 103.02 301.12 120.35 301.12 139.56C301.12 158.56 296.12 176.1 287.12 189.47C278.34 202.62 264.56 212.64 248.48 212.64C231.99 212.64 218.41 202.64 209.65 189.47C200.46 176.1 195.66 158.56 195.45 139.56ZM277.92 139.56C277.92 124.56 273.75 111.37 267.92 102.39C261.92 93.62 254.98 89.45 248.5 89.66C242.03 89.45 234.93 93.66 228.67 102.39C222.82 111.39 218.67 124.53 218.67 139.56C218.67 154.39 222.85 167.75 228.67 176.56C234.93 185.56 242.03 189.51 248.5 189.51C254.97 189.51 261.87 185.51 267.92 176.56C273.75 167.75 277.92 154.39 277.92 139.56Z" fill="#F0934E"/>
<path d="M437.33 173.3C437.07 173.02 436.81 172.76 436.54 172.51C436.29 172.24 436.02 171.97 435.76 171.73C435.5 171.45 435.24 171.18 434.97 170.94C434.72 170.66 434.45 170.4 434.19 170.15C433.93 169.88 433.67 169.61 433.4 169.37C433.14 169.09 432.88 168.83 432.61 168.58C432.36 168.31 432.09 168.04 431.83 167.8C431.57 167.52 431.31 167.26 431.04 167.01C430.79 166.74 430.52 166.47 430.26 166.23C429.453 165.338 428.507 164.582 427.46 163.99V85.29C427.46 84.88 427.25 84.67 427.25 84.29C427.302 83.8618 427.229 83.4278 427.04 83.04C427.04 82.83 426.84 82.41 426.84 82.2C426.732 81.7732 426.592 81.3553 426.42 80.95C426.199 80.7187 426.052 80.4259 426 80.11C425.767 79.7402 425.484 79.4038 425.16 79.11C424.95 78.9 424.75 78.49 424.54 78.27L423.7 77.44C423.7 77.31 423.54 77.18 423.36 77.1L422.95 76.68H422.9C422.9 76.55 422.75 76.43 422.56 76.34L422.15 75.93C422.15 75.8 421.99 75.67 421.81 75.59L421.4 75.17H421.35C421.35 75.04 421.19 74.91 421.01 74.83L420.6 74.42C420.6 74.3 420.44 74.17 420.26 74.08L419.84 73.67C419.84 73.54 419.68 73.41 419.5 73.33L419.09 72.91C419.09 72.79 418.93 72.66 418.75 72.57L418.33 72.16C418.33 72.03 418.17 71.9 417.99 71.82L417.58 71.4C417.58 71.27 417.43 71.15 417.24 71.06L416.83 70.65C416.83 70.52 416.67 70.39 416.49 70.31L416.03 69.85C416.03 69.65 415.62 69.44 415.41 69.44C415.41 69.3817 415.387 69.3257 415.346 69.2844C415.304 69.2432 415.248 69.22 415.19 69.22C414.78 69.02 414.57 68.81 414.19 68.6C413.843 68.3367 413.509 68.0563 413.19 67.76C412.97 67.76 412.56 67.56 412.35 67.56C411.93 67.35 411.35 67.35 411.1 67.13C410.735 67.1617 410.368 67.0925 410.04 66.93H406C405.751 67.0904 405.455 67.161 405.16 67.13C404.54 67.35 404.16 67.35 403.91 67.56C403.5 67.56 403.29 67.76 403.07 68.18C402.621 68.195 402.187 68.341 401.82 68.6C401.62 68.81 401.2 69.02 400.99 69.22C400.724 69.5218 400.377 69.7406 399.99 69.85C399.836 70.1653 399.626 70.45 399.37 70.69C399.16 70.9 399.16 71.1 398.95 71.1L321.7 167.16C319.863 169.359 318.942 172.181 319.128 175.04C319.314 177.899 320.593 180.578 322.7 182.52C323.498 183.312 324.292 184.108 325.08 184.91C325.326 185.193 325.594 185.457 325.88 185.7C326.12 185.989 326.385 186.256 326.67 186.5C326.916 186.786 327.184 187.054 327.47 187.3C327.714 187.585 327.982 187.85 328.27 188.09C328.793 188.627 329.323 189.157 329.86 189.68C330.352 190.236 330.898 190.742 331.49 191.19C333.453 192.895 335.992 193.789 338.59 193.69H396.41V201.61C396.392 203.221 396.715 204.817 397.358 206.294C398.001 207.771 398.949 209.095 400.14 210.18C400.381 210.455 400.638 210.715 400.91 210.96C401.16 211.22 401.41 211.48 401.68 211.72C401.92 212 402.19 212.25 402.45 212.5C402.7 212.76 402.95 213.02 403.22 213.26C403.46 213.54 403.73 213.79 403.99 214.04C404.24 214.31 404.49 214.56 404.76 214.8C405 215.07 405.27 215.33 405.53 215.57C405.77 215.84 406.02 216.09 406.29 216.34C406.54 216.61 406.8 216.87 407.07 217.11C408.645 218.808 410.695 219.992 412.952 220.51C415.21 221.027 417.57 220.853 419.728 220.011C421.885 219.169 423.739 217.697 425.048 215.786C426.358 213.876 427.062 211.616 427.07 209.3V193.24H429.16C431.497 193.297 433.796 192.636 435.746 191.345C437.695 190.053 439.201 188.195 440.06 186.021C440.92 183.846 441.091 181.46 440.551 179.185C440.011 176.91 438.785 174.856 437.04 173.3H437.33ZM396.44 128.58V162.33H369.25L396.44 128.58Z" fill="#F0934E"/>
<path opacity="0.1" d="M437.33 173.3C437.07 173.02 436.81 172.76 436.54 172.51C436.29 172.24 436.02 171.97 435.76 171.73C435.5 171.45 435.24 171.18 434.97 170.94C434.72 170.66 434.45 170.4 434.19 170.15C433.93 169.88 433.67 169.61 433.4 169.37C433.14 169.09 432.88 168.83 432.61 168.58C432.36 168.31 432.09 168.04 431.83 167.8C431.57 167.52 431.31 167.26 431.04 167.01C430.79 166.74 430.52 166.47 430.26 166.23C429.453 165.338 428.507 164.582 427.46 163.99V85.29C427.46 84.88 427.25 84.67 427.25 84.29C427.302 83.8618 427.229 83.4278 427.04 83.04C427.04 82.83 426.84 82.41 426.84 82.2C426.732 81.7732 426.592 81.3553 426.42 80.95C426.199 80.7187 426.052 80.4259 426 80.11C425.767 79.7402 425.484 79.4038 425.16 79.11C424.95 78.9 424.75 78.49 424.54 78.27L423.7 77.44C423.7 77.31 423.54 77.18 423.36 77.1L422.95 76.68H422.9C422.9 76.55 422.75 76.43 422.56 76.34L422.15 75.93C422.15 75.8 421.99 75.67 421.81 75.59L421.4 75.17H421.35C421.35 75.04 421.19 74.91 421.01 74.83L420.6 74.42C420.6 74.3 420.44 74.17 420.26 74.08L419.84 73.67C419.84 73.54 419.68 73.41 419.5 73.33L419.09 72.91C419.09 72.79 418.93 72.66 418.75 72.57L418.33 72.16C418.33 72.03 418.17 71.9 417.99 71.82L417.58 71.4C417.58 71.27 417.43 71.15 417.24 71.06L416.83 70.65C416.83 70.52 416.67 70.39 416.49 70.31L416.03 69.85C416.03 69.65 415.62 69.44 415.41 69.44C415.41 69.3817 415.387 69.3257 415.346 69.2844C415.304 69.2432 415.248 69.22 415.19 69.22C414.78 69.02 414.57 68.81 414.19 68.6C413.843 68.3367 413.509 68.0563 413.19 67.76C412.97 67.76 412.56 67.56 412.35 67.56C411.93 67.35 411.35 67.35 411.1 67.13C410.735 67.1617 410.368 67.0925 410.04 66.93H406C405.751 67.0904 405.455 67.161 405.16 67.13C404.54 67.35 404.16 67.35 403.91 67.56C403.5 67.56 403.29 67.76 403.07 68.18C402.621 68.195 402.187 68.341 401.82 68.6C401.62 68.81 401.2 69.02 400.99 69.22C400.724 69.5218 400.377 69.7406 399.99 69.85C399.836 70.1653 399.626 70.45 399.37 70.69C399.16 70.9 399.16 71.1 398.95 71.1L321.7 167.16C319.863 169.359 318.942 172.181 319.128 175.04C319.314 177.899 320.593 180.578 322.7 182.52C323.498 183.312 324.292 184.108 325.08 184.91C325.326 185.193 325.594 185.457 325.88 185.7C326.12 185.989 326.385 186.256 326.67 186.5C326.916 186.786 327.184 187.054 327.47 187.3C327.714 187.585 327.982 187.85 328.27 188.09C328.793 188.627 329.323 189.157 329.86 189.68C330.352 190.236 330.898 190.742 331.49 191.19C333.453 192.895 335.992 193.789 338.59 193.69H396.41V201.61C396.392 203.221 396.715 204.817 397.358 206.294C398.001 207.771 398.949 209.095 400.14 210.18C400.381 210.455 400.638 210.715 400.91 210.96C401.16 211.22 401.41 211.48 401.68 211.72C401.92 212 402.19 212.25 402.45 212.5C402.7 212.76 402.95 213.02 403.22 213.26C403.46 213.54 403.73 213.79 403.99 214.04C404.24 214.31 404.49 214.56 404.76 214.8C405 215.07 405.27 215.33 405.53 215.57C405.77 215.84 406.02 216.09 406.29 216.34C406.54 216.61 406.8 216.87 407.07 217.11C408.645 218.808 410.695 219.992 412.952 220.51C415.21 221.027 417.57 220.853 419.728 220.011C421.885 219.169 423.739 217.697 425.048 215.786C426.358 213.876 427.062 211.616 427.07 209.3V193.24H429.16C431.497 193.297 433.796 192.636 435.746 191.345C437.695 190.053 439.201 188.195 440.06 186.021C440.92 183.846 441.091 181.46 440.551 179.185C440.011 176.91 438.785 174.856 437.04 173.3H437.33ZM396.44 128.58V162.33H369.25L396.44 128.58Z" fill="black"/>
<path d="M433.19 173.81C433.188 175.336 432.882 176.845 432.29 178.251C431.699 179.658 430.833 180.932 429.744 182C428.655 183.069 427.365 183.91 425.948 184.475C424.531 185.039 423.015 185.317 421.49 185.29H419.4V201.16C419.4 204.21 418.188 207.135 416.032 209.292C413.875 211.448 410.95 212.66 407.9 212.66C404.85 212.66 401.925 211.448 399.768 209.292C397.612 207.135 396.4 204.21 396.4 201.16V185.29H330.66C328.061 185.386 325.522 184.488 323.56 182.78C322.35 181.871 321.338 180.726 320.585 179.414C319.831 178.102 319.352 176.651 319.176 175.148C319 173.645 319.131 172.122 319.562 170.672C319.992 169.221 320.713 167.874 321.68 166.71L398.94 70.65C399.15 70.65 399.15 70.45 399.36 70.24C399.619 70.0007 399.833 69.716 399.99 69.4C400.372 69.2853 400.717 69.0713 400.99 68.78C401.2 68.57 401.62 68.36 401.83 68.15C402.194 67.8849 402.63 67.7383 403.08 67.73C403.28 67.31 403.49 67.11 403.91 67.11C404.12 66.9 404.54 66.9 405.17 66.69C405.463 66.7199 405.757 66.6455 406 66.48H409.55C409.858 66.641 410.204 66.7137 410.55 66.69C410.76 66.9 411.39 66.9 411.81 67.11C412.02 67.11 412.44 67.31 412.64 67.31C413.06 67.73 413.48 67.94 413.64 68.15C414.06 68.36 414.27 68.57 414.69 68.78C414.725 68.7604 414.764 68.7511 414.804 68.7531C414.844 68.7552 414.882 68.7685 414.915 68.7916C414.947 68.8147 414.973 68.8465 414.988 68.8834C415.003 68.9203 415.007 68.9608 415 69C415.21 69 415.63 69.2 415.63 69.41L416.46 70.25C416.67 70.46 416.88 70.87 417.09 71.08C417.409 71.3944 417.688 71.7471 417.92 72.13C417.973 72.4427 418.119 72.7321 418.34 72.96C418.512 73.3688 418.652 73.79 418.76 74.22C418.76 74.42 418.96 74.84 418.96 75.05C419.148 75.4379 419.221 75.8718 419.17 76.3C419.17 76.72 419.38 76.93 419.38 77.3V162.3H421.47C424.549 162.276 427.513 163.474 429.71 165.632C431.907 167.79 433.158 170.731 433.19 173.81ZM396.44 110.75L354.88 162.32H396.44V110.75Z" fill="#F0934E"/>
<path opacity="0.2" d="M256.63 390.12C262.501 390.12 267.26 385.361 267.26 379.49C267.26 373.619 262.501 368.86 256.63 368.86C250.759 368.86 246 373.619 246 379.49C246 385.361 250.759 390.12 256.63 390.12Z" fill="#F0934E"/>
<path opacity="0.2" d="M256.63 390.07C261.137 390.07 264.79 386.417 264.79 381.91C264.79 377.403 261.137 373.75 256.63 373.75C252.123 373.75 248.47 377.403 248.47 381.91C248.47 386.417 252.123 390.07 256.63 390.07Z" fill="#F0934E"/>
<path d="M257.36 390.05C257.36 390.05 250.87 389.1 250.49 389.35C250.11 389.6 249.74 391.49 250.49 391.95C251.24 392.41 257.21 391.58 257.21 391.58C257.41 391.383 257.535 391.122 257.562 390.842C257.59 390.563 257.518 390.282 257.36 390.05Z" fill="#F0934E"/>
<path opacity="0.49" d="M257.36 390.05C257.36 390.05 250.87 389.1 250.49 389.35C250.11 389.6 249.74 391.49 250.49 391.95C251.24 392.41 257.21 391.58 257.21 391.58C257.41 391.383 257.535 391.122 257.562 390.842C257.59 390.563 257.518 390.282 257.36 390.05Z" fill="black"/>
<path opacity="0.2" d="M250.52 389.43C250.71 389.38 251.03 390.03 250.96 390.75C250.89 391.47 250.63 391.9 250.52 391.89C250.41 391.88 250.05 391.47 250.11 390.58C250.16 389.94 250.35 389.46 250.52 389.43Z" fill="white"/>
<g opacity="0.2">
<path d="M251.2 389.61C251.573 389.585 251.947 389.585 252.32 389.61L252.88 389.66L253.16 389.71C253.248 389.739 253.338 389.76 253.43 389.77C253.791 389.83 254.155 389.87 254.52 389.89L255.64 389.99C255.267 390.01 254.893 390.01 254.52 389.99C254.142 389.993 253.764 389.966 253.39 389.91C253.298 389.897 253.207 389.874 253.12 389.84L252.85 389.79L252.31 389.71L251.2 389.61Z" fill="black"/>
<path d="M251.93 390L252.72 390.13C252.98 390.18 253.24 390.24 253.49 390.27C253.75 390.285 254.01 390.285 254.27 390.27H255.06C254.803 390.339 254.543 390.392 254.28 390.43C254.011 390.46 253.739 390.46 253.47 390.43C253.206 390.386 252.946 390.326 252.69 390.25C252.431 390.186 252.177 390.102 251.93 390Z" fill="black"/>
<path d="M255.12 390.56C255.461 390.308 255.867 390.159 256.29 390.13C256.506 390.117 256.722 390.155 256.92 390.24C257.03 390.28 257.129 390.345 257.21 390.43C257.253 390.476 257.287 390.531 257.31 390.59C257.316 390.613 257.316 390.637 257.31 390.66C257.295 390.69 257.275 390.717 257.25 390.74C257.092 390.904 256.885 391.013 256.66 391.05C256.549 391.08 256.431 391.08 256.32 391.05L256 391C255.91 390.93 255.81 390.88 255.76 390.75C255.75 390.731 255.745 390.711 255.745 390.69C255.745 390.669 255.75 390.649 255.76 390.63C255.768 390.613 255.779 390.599 255.793 390.586C255.806 390.574 255.822 390.565 255.84 390.56H256C256.106 390.545 256.214 390.545 256.32 390.56C256.424 390.567 256.524 390.602 256.61 390.66C256.419 390.595 256.211 390.595 256.02 390.66H255.88C255.88 390.66 255.88 390.66 255.88 390.72C255.88 390.78 256 390.84 256.08 390.88C256.166 390.925 256.257 390.962 256.35 390.99C256.438 391.015 256.532 391.015 256.62 390.99C256.806 390.948 256.976 390.855 257.11 390.72C257.095 390.687 257.075 390.657 257.05 390.63C256.986 390.56 256.908 390.505 256.82 390.47C256.643 390.395 256.453 390.354 256.26 390.35C256.057 390.347 255.855 390.374 255.66 390.43C255.477 390.458 255.296 390.501 255.12 390.56Z" fill="black"/>
<path d="M257.28 391.19C257.027 391.323 256.753 391.411 256.47 391.45C256.327 391.465 256.183 391.465 256.04 391.45C255.893 391.429 255.749 391.392 255.61 391.34C255.35 391.239 255.099 391.115 254.86 390.97C254.614 390.844 254.351 390.754 254.08 390.7C254.365 390.679 254.65 390.731 254.91 390.85C255.18 390.95 255.42 391.08 255.67 391.17C255.922 391.266 256.191 391.31 256.46 391.3C256.736 391.292 257.011 391.255 257.28 391.19Z" fill="black"/>
<path d="M251 391.74H252C252.333 391.761 252.667 391.761 253 391.74C253.33 391.681 253.665 391.661 254 391.68C254.33 391.68 254.66 391.74 255 391.79H254C253.665 391.793 253.33 391.823 253 391.88C252.668 391.918 252.332 391.918 252 391.88C251.664 391.853 251.33 391.807 251 391.74Z" fill="black"/>
<path d="M255.46 391.53L254.63 391.33L254.21 391.25C254.078 391.225 253.942 391.225 253.81 391.25L252.97 391.42L252.54 391.47C252.391 391.494 252.239 391.494 252.09 391.47C251.948 391.439 251.807 391.399 251.67 391.35C251.521 391.299 251.385 391.217 251.27 391.11C251.244 391.07 251.224 391.026 251.21 390.98C251.19 390.929 251.19 390.871 251.21 390.82C251.256 390.741 251.332 390.684 251.42 390.66C251.561 390.609 251.71 390.582 251.86 390.58C252.006 390.57 252.154 390.57 252.3 390.58C252.45 390.598 252.593 390.649 252.72 390.73C252.741 390.741 252.758 390.757 252.772 390.776C252.786 390.795 252.796 390.817 252.8 390.84C252.8 390.91 252.73 390.93 252.7 390.95H252.49C252.347 390.965 252.203 390.965 252.06 390.95L252.48 390.9C252.6 390.9 252.82 390.81 252.67 390.75C252.55 390.686 252.416 390.651 252.28 390.65C252.144 390.635 252.006 390.635 251.87 390.65C251.734 390.66 251.6 390.687 251.47 390.73C251.42 390.73 251.37 390.79 251.36 390.82C251.348 390.836 251.341 390.855 251.341 390.875C251.341 390.895 251.348 390.914 251.36 390.93C251.456 391.013 251.568 391.074 251.69 391.11C251.82 391.159 251.954 391.199 252.09 391.23C252.362 391.269 252.638 391.269 252.91 391.23C253.19 391.23 253.46 391.13 253.75 391.1H253.97C254.043 391.094 254.117 391.094 254.19 391.1L254.61 391.21C254.92 391.33 255.19 391.42 255.46 391.53Z" fill="black"/>
<path d="M253.63 390.73C253.24 390.66 252.88 390.56 252.51 390.46L251.97 390.32C251.789 390.262 251.6 390.228 251.41 390.22C251.601 390.175 251.799 390.175 251.99 390.22C252.183 390.241 252.373 390.278 252.56 390.33C252.932 390.42 253.291 390.554 253.63 390.73Z" fill="black"/>
</g>
<path d="M256.46 390C256.46 390 262.96 389.12 263.35 389.38C263.74 389.64 264.06 391.53 263.28 391.98C262.5 392.43 256.55 391.53 256.55 391.53C256.359 391.326 256.245 391.061 256.229 390.781C256.212 390.502 256.294 390.226 256.46 390Z" fill="#F0934E"/>
<path opacity="0.49" d="M256.46 390C256.46 390 262.96 389.12 263.35 389.38C263.74 389.64 264.06 391.53 263.28 391.98C262.5 392.43 256.55 391.53 256.55 391.53C256.359 391.326 256.245 391.061 256.229 390.781C256.212 390.502 256.294 390.226 256.46 390Z" fill="black"/>
<path opacity="0.2" d="M263.31 389.46C263.12 389.46 262.79 390.06 262.86 390.78C262.93 391.5 263.17 391.93 263.28 391.92C263.39 391.91 263.75 391.51 263.7 390.62C263.67 390 263.48 389.5 263.31 389.46Z" fill="white"/>
<g opacity="0.2">
<path d="M256.7 391.35L257.81 391.41C257.993 391.42 258.177 391.42 258.36 391.41H258.63H258.92C259.296 391.417 259.67 391.453 260.04 391.52C260.407 391.576 260.771 391.653 261.13 391.75L260.02 391.66C259.65 391.66 259.28 391.59 258.92 391.59H258.65C258.554 391.6 258.456 391.6 258.36 391.59C258.173 391.6 257.987 391.6 257.8 391.59C257.43 391.5 257.06 391.43 256.7 391.35Z" fill="black"/>
<path d="M257.37 391.33C257.621 391.241 257.879 391.171 258.14 391.12C258.403 391.06 258.671 391.02 258.94 391C259.209 390.999 259.478 391.029 259.74 391.09C260.001 391.148 260.258 391.222 260.51 391.31L259.72 391.23C259.464 391.199 259.207 391.182 258.95 391.18L258.17 391.26L257.37 391.33Z" fill="black"/>
<path d="M260.59 391C260.77 391.101 260.957 391.188 261.15 391.26C261.341 391.325 261.539 391.365 261.74 391.38C261.933 391.394 262.128 391.367 262.31 391.3C262.4 391.273 262.482 391.225 262.55 391.16C262.582 391.137 262.606 391.106 262.62 391.07V391.02C262.495 390.877 262.332 390.773 262.15 390.72C262.064 390.7 261.975 390.7 261.89 390.72L261.6 390.8C261.518 390.83 261.445 390.882 261.39 390.95C261.39 390.95 261.39 390.95 261.39 391.01H261.52C261.714 391.08 261.926 391.08 262.12 391.01C262.031 391.068 261.927 391.1 261.82 391.1C261.714 391.115 261.606 391.115 261.5 391.1L261.34 391.05C261.34 391.05 261.28 391.05 261.26 390.97C261.25 390.953 261.245 390.934 261.245 390.915C261.245 390.896 261.25 390.877 261.26 390.86C261.314 390.751 261.407 390.666 261.52 390.62L261.82 390.51C261.935 390.48 262.055 390.48 262.17 390.51C262.387 390.569 262.582 390.691 262.73 390.86V390.95C262.737 390.973 262.737 390.997 262.73 391.02C262.704 391.077 262.667 391.128 262.62 391.17C262.533 391.247 262.431 391.305 262.32 391.34C262.114 391.409 261.895 391.43 261.68 391.4C261.289 391.36 260.914 391.223 260.59 391Z" fill="black"/>
<path d="M262.79 390.51C262.531 390.421 262.263 390.36 261.99 390.33C261.725 390.295 261.456 390.315 261.2 390.39C260.94 390.46 260.69 390.57 260.41 390.66C260.14 390.751 259.852 390.779 259.57 390.74C259.846 390.711 260.116 390.641 260.37 390.53C260.621 390.404 260.882 390.301 261.15 390.22C261.289 390.177 261.434 390.153 261.58 390.15C261.723 390.135 261.867 390.135 262.01 390.15C262.29 390.221 262.554 390.343 262.79 390.51Z" fill="black"/>
<path d="M258.91 389.89C259.24 389.82 259.574 389.77 259.91 389.74C260.242 389.702 260.578 389.702 260.91 389.74C261.24 389.797 261.575 389.827 261.91 389.83H262.91C262.579 389.89 262.245 389.93 261.91 389.95C261.578 389.989 261.242 389.989 260.91 389.95C260.577 389.924 260.243 389.924 259.91 389.95L258.91 389.89Z" fill="black"/>
<path d="M261 390L260.17 390.22L259.75 390.29C259.674 390.3 259.596 390.3 259.52 390.29H259.3L258.47 390.09C258.206 390.021 257.933 389.991 257.66 390L257.26 390.08C257.134 390.11 257.015 390.164 256.91 390.24C256.901 390.257 256.897 390.276 256.897 390.295C256.897 390.314 256.901 390.333 256.91 390.35C256.935 390.392 256.974 390.424 257.02 390.44C257.144 390.496 257.275 390.537 257.41 390.56C257.546 390.57 257.684 390.57 257.82 390.56C257.954 390.568 258.087 390.544 258.21 390.49C258.36 390.49 258.15 390.37 258.03 390.33C257.896 390.289 257.759 390.259 257.62 390.24H258.04C258.116 390.254 258.19 390.278 258.26 390.31C258.284 390.317 258.305 390.331 258.319 390.351C258.334 390.371 258.341 390.395 258.34 390.42C258.336 390.443 258.326 390.465 258.312 390.484C258.298 390.503 258.281 390.519 258.26 390.53C258.122 390.596 257.973 390.633 257.82 390.64C257.677 390.655 257.533 390.655 257.39 390.64C257.239 390.631 257.09 390.597 256.95 390.54C256.863 390.502 256.792 390.435 256.75 390.35C256.735 390.301 256.735 390.249 256.75 390.2C256.763 390.152 256.787 390.107 256.82 390.07C256.943 389.971 257.087 389.899 257.24 389.86C257.381 389.82 257.525 389.789 257.67 389.77C257.819 389.75 257.971 389.75 258.12 389.77C258.262 389.79 258.402 389.82 258.54 389.86L259.36 390.09C259.495 390.115 259.634 390.115 259.77 390.09H260.19C260.45 390.13 260.73 390.08 261 390Z" fill="black"/>
<path d="M259.12 390.69C258.769 390.851 258.4 390.969 258.02 391.04C257.831 391.073 257.641 391.097 257.45 391.11C257.252 391.125 257.054 391.094 256.87 391.02C257.056 391.041 257.244 391.041 257.43 391.02L257.99 390.91C258.362 390.816 258.74 390.742 259.12 390.69Z" fill="black"/>
<path d="M260.85 391.39C261.15 391.49 261.42 391.58 261.71 391.65L262.14 391.73H262.59C262.449 391.797 262.296 391.834 262.14 391.84C261.982 391.844 261.824 391.827 261.67 391.79C261.518 391.752 261.371 391.698 261.23 391.63C261.092 391.57 260.963 391.489 260.85 391.39Z" fill="black"/>
</g>
<path d="M261.87 376.25C261.87 376.277 261.875 376.304 261.886 376.329C261.897 376.354 261.912 376.376 261.932 376.395C261.952 376.414 261.975 376.428 262 376.438C262.026 376.447 262.053 376.451 262.08 376.45C262.133 376.45 262.184 376.429 262.221 376.391C262.259 376.354 262.28 376.303 262.28 376.25C262.281 376.223 262.277 376.196 262.268 376.17C262.258 376.145 262.244 376.122 262.225 376.102C262.206 376.082 262.184 376.067 262.159 376.056C262.134 376.045 262.107 376.04 262.08 376.04C262.024 376.04 261.971 376.062 261.932 376.102C261.892 376.141 261.87 376.194 261.87 376.25Z" fill="#F0934E"/>
<path d="M259.72 367.6C259.72 367.64 259.732 367.678 259.754 367.711C259.776 367.744 259.807 367.77 259.843 367.785C259.88 367.8 259.92 367.804 259.959 367.796C259.998 367.788 260.033 367.769 260.061 367.741C260.089 367.713 260.108 367.678 260.116 367.639C260.124 367.6 260.12 367.56 260.105 367.523C260.09 367.487 260.064 367.456 260.031 367.434C259.998 367.412 259.96 367.4 259.92 367.4C259.867 367.4 259.816 367.421 259.779 367.459C259.741 367.496 259.72 367.547 259.72 367.6Z" fill="#F0934E"/>
<path d="M252 374.93C252.037 374.967 252.088 374.987 252.14 374.987C252.192 374.987 252.243 374.967 252.28 374.93C252.317 374.891 252.338 374.839 252.338 374.785C252.338 374.731 252.317 374.679 252.28 374.64C252.243 374.603 252.192 374.583 252.14 374.583C252.088 374.583 252.037 374.603 252 374.64C251.979 374.658 251.962 374.68 251.95 374.705C251.939 374.73 251.933 374.757 251.933 374.785C251.933 374.813 251.939 374.84 251.95 374.865C251.962 374.89 251.979 374.912 252 374.93Z" fill="#F0934E"/>
<path d="M250.22 387.23C250.22 387.283 250.241 387.334 250.279 387.371C250.316 387.409 250.367 387.43 250.42 387.43C250.473 387.43 250.524 387.409 250.561 387.371C250.599 387.334 250.62 387.283 250.62 387.23C250.62 387.177 250.599 387.126 250.561 387.089C250.524 387.051 250.473 387.03 250.42 387.03C250.367 387.03 250.316 387.051 250.279 387.089C250.241 387.126 250.22 387.177 250.22 387.23Z" fill="#F0934E"/>
<path d="M262.8 385.86C262.8 385.9 262.812 385.938 262.834 385.971C262.856 386.004 262.887 386.03 262.923 386.045C262.96 386.06 263 386.064 263.039 386.056C263.078 386.048 263.113 386.029 263.141 386.001C263.169 385.973 263.188 385.938 263.196 385.899C263.204 385.86 263.2 385.82 263.185 385.783C263.17 385.747 263.144 385.716 263.111 385.694C263.078 385.672 263.04 385.66 263 385.66C262.947 385.66 262.896 385.681 262.859 385.719C262.821 385.756 262.8 385.807 262.8 385.86Z" fill="#F0934E"/>
<path d="M261.6 377.56C261.6 377.632 261.628 377.7 261.679 377.751C261.73 377.802 261.798 377.83 261.87 377.83C261.942 377.83 262.01 377.802 262.061 377.751C262.112 377.7 262.14 377.632 262.14 377.56C262.14 377.488 262.112 377.42 262.061 377.369C262.01 377.318 261.942 377.29 261.87 377.29C261.835 377.29 261.799 377.297 261.767 377.311C261.734 377.324 261.704 377.344 261.679 377.369C261.654 377.394 261.634 377.424 261.621 377.457C261.607 377.489 261.6 377.525 261.6 377.56Z" fill="#F0934E"/>
<path d="M253.12 372.68C253.163 372.711 253.213 372.729 253.266 372.731C253.319 372.734 253.371 372.721 253.416 372.694C253.462 372.667 253.498 372.627 253.521 372.58C253.544 372.533 253.553 372.479 253.546 372.427C253.54 372.375 253.518 372.326 253.483 372.286C253.449 372.246 253.404 372.217 253.353 372.202C253.303 372.187 253.249 372.188 253.198 372.204C253.148 372.219 253.103 372.249 253.07 372.29C253.047 372.318 253.029 372.351 253.019 372.387C253.009 372.422 253.006 372.459 253.011 372.496C253.015 372.532 253.028 372.568 253.046 372.599C253.065 372.631 253.09 372.658 253.12 372.68Z" fill="#F0934E"/>
<path d="M250.73 382.76C250.733 382.833 250.763 382.901 250.815 382.952C250.868 383.002 250.937 383.03 251.01 383.03C251.082 383.03 251.15 383.002 251.201 382.951C251.252 382.9 251.28 382.832 251.28 382.76C251.28 382.687 251.252 382.618 251.202 382.565C251.151 382.513 251.082 382.483 251.01 382.48C250.937 382.483 250.867 382.513 250.815 382.565C250.763 382.617 250.732 382.687 250.73 382.76Z" fill="#F0934E"/>
<path d="M261.17 377.17C261.17 377.186 261.173 377.201 261.179 377.216C261.185 377.23 261.194 377.244 261.205 377.255C261.216 377.266 261.23 377.275 261.244 377.281C261.259 377.287 261.274 377.29 261.29 377.29C261.306 377.29 261.321 377.287 261.336 377.281C261.35 377.275 261.364 377.266 261.375 377.255C261.386 377.244 261.395 377.23 261.401 377.216C261.407 377.201 261.41 377.186 261.41 377.17C261.408 377.139 261.394 377.11 261.372 377.088C261.35 377.066 261.321 377.052 261.29 377.05C261.258 377.05 261.228 377.063 261.205 377.085C261.183 377.108 261.17 377.138 261.17 377.17Z" fill="#F0934E"/>
<path d="M262.29 381.11C262.356 381.11 262.41 381.056 262.41 380.99C262.41 380.924 262.356 380.87 262.29 380.87C262.224 380.87 262.17 380.924 262.17 380.99C262.17 381.056 262.224 381.11 262.29 381.11Z" fill="#F0934E"/>
<path d="M263.71 384.78C263.71 384.812 263.723 384.842 263.745 384.865C263.768 384.887 263.798 384.9 263.83 384.9C263.862 384.9 263.892 384.887 263.915 384.865C263.937 384.842 263.95 384.812 263.95 384.78C263.95 384.748 263.937 384.718 263.915 384.695C263.892 384.673 263.862 384.66 263.83 384.66C263.799 384.662 263.77 384.676 263.748 384.698C263.726 384.72 263.712 384.749 263.71 384.78Z" fill="#F0934E"/>
<path d="M250.34 381.91C250.34 381.942 250.353 381.972 250.375 381.995C250.398 382.017 250.428 382.03 250.46 382.03C250.492 382.03 250.522 382.017 250.545 381.995C250.567 381.972 250.58 381.942 250.58 381.91C250.578 381.879 250.564 381.85 250.542 381.828C250.52 381.806 250.491 381.792 250.46 381.79C250.428 381.79 250.398 381.803 250.375 381.825C250.353 381.848 250.34 381.878 250.34 381.91Z" fill="#F0934E"/>
<path d="M262.77 373.44C262.77 373.469 262.782 373.497 262.802 373.518C262.823 373.538 262.851 373.55 262.88 373.55C262.895 373.551 262.911 373.55 262.925 373.545C262.94 373.54 262.953 373.532 262.964 373.522C262.976 373.511 262.985 373.499 262.991 373.485C262.997 373.47 263 373.455 263 373.44C263 373.408 262.987 373.378 262.965 373.355C262.942 373.333 262.912 373.32 262.88 373.32C262.865 373.32 262.849 373.323 262.835 373.329C262.821 373.335 262.809 373.344 262.798 373.356C262.788 373.367 262.78 373.38 262.775 373.395C262.77 373.409 262.769 373.425 262.77 373.44Z" fill="#F0934E"/>
<path d="M257.45 372.46C257.516 372.46 257.57 372.406 257.57 372.34C257.57 372.274 257.516 372.22 257.45 372.22C257.384 372.22 257.33 372.274 257.33 372.34C257.33 372.406 257.384 372.46 257.45 372.46Z" fill="#F0934E"/>
<path d="M256.56 370.68C256.626 370.68 256.68 370.626 256.68 370.56C256.68 370.494 256.626 370.44 256.56 370.44C256.494 370.44 256.44 370.494 256.44 370.56C256.44 370.626 256.494 370.68 256.56 370.68Z" fill="#F0934E"/>
<path d="M252.5 390.33C253.742 390.803 255.039 391.116 256.36 391.26H257.15C257.15 391.26 259.15 390.79 259.42 390.69C259.69 390.59 260.42 390.9 260.7 390.69C261.437 390.127 262.081 389.452 262.61 388.69C262.512 387.967 262.338 387.256 262.09 386.57C262.09 386.28 262.49 384.57 262.53 383.99C262.57 383.41 260.88 380.6 260.72 380.14C260.758 379.407 260.924 378.686 261.21 378.01C261.21 378.01 259.82 379.47 259.86 379.82C259.9 380.17 260.54 380.95 260.58 381.2C260.62 381.45 259.71 383.2 259.74 383.46C259.926 383.917 260.06 384.393 260.14 384.88C260.043 384.457 259.82 384.073 259.5 383.78C259.139 383.581 258.789 383.365 258.45 383.13C258.129 382.58 257.909 381.977 257.8 381.35C258.035 380.989 258.167 380.571 258.18 380.14C257.845 379.22 257.405 378.34 256.87 377.52C256.87 377.52 257.09 378.64 256.87 378.91C256.65 379.18 255.87 379.59 255.78 379.8C255.69 380.01 256.5 380.92 256.4 381.14C256.3 381.36 254.51 381.73 254.33 381.98C253.982 382.761 253.798 383.605 253.79 384.46C253.92 384.82 254.35 386.19 254.11 386.46C253.87 386.73 253.33 386.84 253.31 386.73C253.456 386.244 253.52 385.737 253.5 385.23C253.37 384.7 252.8 383.54 252.76 383.23C252.841 382.524 253.012 381.832 253.27 381.17C252.789 381.898 252.396 382.68 252.1 383.5C252.159 384.302 252.263 385.1 252.41 385.89C252.41 385.89 252.15 385.72 252.09 385.6C252.062 385.267 252.062 384.933 252.09 384.6C251.766 384.962 251.496 385.37 251.29 385.81C251.21 386.17 251.62 387.07 251.56 387.38C251.5 387.69 251.18 388.38 251.14 388.78C251.1 389.18 252.19 390.14 252.5 390.33ZM261.08 387.62C260.988 388.046 260.829 388.454 260.61 388.83C260.61 388.83 260.7 388.24 260.7 388C260.648 387.688 260.561 387.382 260.44 387.09C260.405 386.709 260.512 386.328 260.74 386.02C260.924 386.536 261.038 387.074 261.08 387.62ZM259.4 390.4L260.13 389.76C260.37 389.54 261.08 389.22 261.21 389.01C261.356 388.603 261.47 388.185 261.55 387.76C261.638 388.214 261.668 388.678 261.64 389.14C261.346 389.627 260.946 390.04 260.47 390.35C260.119 390.433 259.757 390.449 259.4 390.4ZM254.11 387.25C253.914 387.585 253.775 387.95 253.7 388.33C253.722 388.688 253.839 389.033 254.04 389.33C254.172 389.599 254.275 389.88 254.35 390.17C254.35 390.17 253.51 389.78 253.35 389.17C253.19 388.56 254.06 387.32 254.11 387.25Z" fill="#F0934E"/>
<path d="M259.8 378.41C259.8 378.41 260.67 377.79 260.69 377.33C260.71 376.87 260.15 375.88 260.21 375.51C260.258 375.253 260.342 375.003 260.46 374.77C260.46 374.77 259.54 375.4 259.54 375.92C259.54 376.44 260.09 377.26 260.04 377.52C259.99 377.78 259.8 378.41 259.8 378.41Z" fill="#F0934E"/>
<path d="M254.6 381.26C254.695 380.982 254.752 380.693 254.77 380.4C254.712 380.187 254.602 379.991 254.45 379.83C254.38 379.919 254.333 380.024 254.314 380.136C254.294 380.248 254.304 380.363 254.34 380.47C254.45 380.87 254.6 381.26 254.6 381.26Z" fill="#F0934E"/>
<path d="M252.45 381.15C252.704 380.748 252.874 380.299 252.95 379.83C252.957 379.295 252.833 378.767 252.59 378.29C252.43 378.103 252.237 377.947 252.02 377.83C252.166 378.05 252.274 378.294 252.34 378.55C252.34 378.77 252.18 379.46 252.16 379.73C252.22 380.21 252.317 380.685 252.45 381.15Z" fill="#F0934E"/>
<path d="M258.1 377.56C258.1 377.56 258.75 376.67 258.63 376.09C258.472 375.527 258.188 375.007 257.8 374.57C257.485 374.26 257.194 373.925 256.93 373.57C256.725 373.008 256.725 372.392 256.93 371.83C257.086 371.642 257.28 371.488 257.5 371.38C257.214 371.38 256.933 371.447 256.679 371.578C256.425 371.708 256.206 371.898 256.04 372.13C255.47 372.92 254.74 376.01 255.04 376.72C255.377 377.265 255.819 377.737 256.34 378.11C256.226 377.608 256.169 377.095 256.17 376.58C256.26 376.28 257.17 376.58 257.39 376.77C257.649 377.012 257.887 377.277 258.1 377.56Z" fill="#F0934E"/>
<path d="M259.6 381.93C259.6 381.93 260 381.51 259.92 381.15C259.84 380.79 259.32 380.25 259.29 380.08C259.303 379.79 259.343 379.502 259.41 379.22C259.41 379.22 258.89 380.22 259.01 380.5C259.13 380.78 259.23 381.26 259.23 381.26C259.23 381.26 259 381.11 258.95 380.98C258.911 380.873 258.881 380.762 258.86 380.65C258.86 380.65 258.47 381.14 258.59 381.48C258.806 381.851 259.075 382.188 259.39 382.48C259.383 382.377 259.383 382.273 259.39 382.17C259.39 382.05 259.46 382.11 259.6 381.93Z" fill="#F0934E"/>
<g opacity="0.4">
<path d="M256.82 391.26C256.82 391.26 259.19 390.4 259.72 389.19C260.05 388.43 259.16 386.87 259.08 386.63C259 386.39 259.08 385.43 258.98 385.05C258.88 384.67 257.18 383.68 256.98 383.42C256.78 383.16 257.27 382.12 257.27 382.12C257.27 382.12 256 383.12 255.81 383.73C255.62 384.34 256.37 385.45 256.37 385.66C256.262 385.957 256.11 386.237 255.92 386.49C255.731 386.25 255.61 385.963 255.57 385.66C255.57 385.26 255.76 385.06 255.72 384.78C255.586 384.477 255.396 384.203 255.16 383.97C255.303 384.214 255.353 384.502 255.3 384.78C255.16 385.11 254.52 385.78 254.61 386.27C254.7 386.76 255.47 387.96 255.4 388.27C255.356 388.467 255.274 388.654 255.16 388.82C255.047 388.562 254.956 388.294 254.89 388.02C254.82 387.7 254.75 387.27 254.75 387.27C254.75 387.27 254.36 389.38 254.75 389.97C255.352 390.527 256.054 390.965 256.82 391.26Z" fill="white"/>
<path d="M257.45 376.59C257.591 376.3 257.686 375.99 257.73 375.67C257.73 375.36 257.18 374.94 256.92 374.67C256.518 374.301 256.251 373.808 256.16 373.27C256.16 372.87 256.27 372.57 256.27 372.57C255.911 373.539 255.663 374.545 255.53 375.57C255.554 375.999 255.715 376.41 255.99 376.74C255.99 376.74 256.14 376.06 256.47 376.08C256.836 376.159 257.175 376.335 257.45 376.59Z" fill="white"/>
<path d="M260 378.1C260 378.1 260.51 377.63 260.5 377.31C260.391 376.891 260.223 376.491 260 376.12C260 376.12 260.22 377.12 260.25 377.35C260.217 377.614 260.132 377.869 260 378.1Z" fill="white"/>
<path d="M254.15 390.51C254.15 390.51 253.15 389.87 252.93 389.71C252.691 389.327 252.538 388.897 252.48 388.45C252.48 388.27 252.83 387.45 252.83 387.25C252.83 387.05 252.16 386.25 252.16 386.25C252.257 386.552 252.317 386.864 252.34 387.18C252.34 387.36 251.42 388.4 251.48 388.79C251.54 389.18 252.37 389.88 252.61 390.04C253.111 390.236 253.625 390.393 254.15 390.51Z" fill="white"/>
<path d="M261.41 386.37C261.706 385.651 261.914 384.899 262.03 384.13C261.793 383.365 261.506 382.617 261.17 381.89C261.17 381.89 261.23 383.4 261.29 383.64C261.306 383.978 261.265 384.316 261.17 384.64C261.061 384.409 260.964 384.172 260.88 383.93C260.885 383.616 260.925 383.304 261 383C260.762 383.574 260.633 384.188 260.62 384.81C260.828 385.356 261.093 385.879 261.41 386.37Z" fill="white"/>
</g>
<path d="M177.024 450.452L176.814 457.032H175.162L174.952 450.452H177.024ZM175.988 460.462C175.661 460.462 175.386 460.35 175.162 460.126C174.938 459.902 174.826 459.627 174.826 459.3C174.826 458.983 174.938 458.717 175.162 458.502C175.386 458.278 175.661 458.166 175.988 458.166C176.296 458.166 176.562 458.278 176.786 458.502C177.01 458.717 177.122 458.983 177.122 459.3C177.122 459.617 177.01 459.888 176.786 460.112C176.562 460.345 176.296 460.462 175.988 460.462ZM186.379 458.012V460H185.693C185.077 460 184.568 459.79 184.167 459.37C183.653 459.79 182.986 460 182.165 460H181.283C180.797 460 180.368 459.916 179.995 459.748C179.621 459.571 179.327 459.333 179.113 459.034C178.907 458.735 178.795 458.409 178.777 458.054C178.767 457.914 178.763 457.611 178.763 457.144H180.387C180.387 457.405 180.396 457.597 180.415 457.718C180.424 457.83 180.471 457.909 180.555 457.956C180.648 457.993 180.788 458.012 180.975 458.012H182.403C182.935 458.012 183.201 457.853 183.201 457.536C183.201 457.48 183.196 457.438 183.187 457.41L183.145 457.242L182.109 453.14L183.831 452.664L184.881 456.78C185.002 457.275 185.109 457.606 185.203 457.774C185.305 457.933 185.469 458.012 185.693 458.012H186.379ZM197.435 460C196.669 460 196.011 459.739 195.461 459.216C195.237 459.468 194.966 459.664 194.649 459.804C194.331 459.935 193.981 460 193.599 460C192.936 460 192.357 459.753 191.863 459.258C191.396 459.753 190.794 460 190.057 460C189.413 460 188.857 459.757 188.391 459.272C187.905 459.757 187.322 460 186.641 460H186.235V458.012H186.641C187.014 458.012 187.257 457.951 187.369 457.83C187.49 457.709 187.551 457.527 187.551 457.284V455.548H189.217V457.284C189.245 457.769 189.525 458.012 190.057 458.012C190.421 458.012 190.663 457.951 190.785 457.83C190.906 457.699 190.967 457.517 190.967 457.284V455.548H192.619V457.284C192.628 457.48 192.703 457.648 192.843 457.788C192.983 457.919 193.193 457.984 193.473 457.984C194.107 457.984 194.425 457.816 194.425 457.48C194.425 457.443 194.415 457.387 194.397 457.312L193.935 455.59L195.531 455.114L195.993 456.836C196.002 456.855 196.007 456.883 196.007 456.92C196.1 457.256 196.277 457.522 196.539 457.718C196.8 457.914 197.099 458.012 197.435 458.012V460ZM190.925 451.362L191.863 450.424L192.801 451.362L191.863 452.314L190.925 451.362ZM189.329 453.392L190.463 452.244L191.625 453.392L190.463 454.54L189.329 453.392ZM192.115 453.392L193.249 452.244L194.411 453.392L193.249 454.54L192.115 453.392ZM198.401 458.012C198.803 458.012 199.097 457.956 199.283 457.844C199.479 457.732 199.577 457.536 199.577 457.256C199.577 457.116 199.549 456.943 199.493 456.738L198.933 454.652L200.641 454.148L201.201 456.234C201.295 456.598 201.341 456.953 201.341 457.298C201.341 458.119 201.071 458.777 200.529 459.272C199.988 459.757 199.279 460 198.401 460H197.295V458.012H198.401ZM197.855 452.09L199.143 450.788L200.445 452.09L199.143 453.378L197.855 452.09ZM207.959 450.298L208.323 459.972L206.559 460.056L206.181 450.382L207.959 450.298ZM218.015 458.012V460H217.329C216.713 460 216.205 459.79 215.803 459.37C215.29 459.79 214.623 460 213.801 460H212.919C212.434 460 212.005 459.916 211.631 459.748C211.258 459.571 210.964 459.333 210.749 459.034C210.544 458.735 210.432 458.409 210.413 458.054C210.404 457.914 210.399 457.611 210.399 457.144H212.023C212.023 457.405 212.033 457.597 212.051 457.718C212.061 457.83 212.107 457.909 212.191 457.956C212.285 457.993 212.425 458.012 212.611 458.012H214.039C214.571 458.012 214.837 457.853 214.837 457.536C214.837 457.48 214.833 457.438 214.823 457.41L214.781 457.242L213.745 453.14L215.467 452.664L216.517 456.78C216.639 457.275 216.746 457.606 216.839 457.774C216.942 457.933 217.105 458.012 217.329 458.012H218.015ZM223.919 460C223.191 460 222.603 459.813 222.155 459.44C221.679 459.813 221.073 460 220.335 460H217.871V458.012H220.335C220.699 458.012 220.947 457.965 221.077 457.872C221.208 457.779 221.264 457.62 221.245 457.396V457.368L221.091 455.646L222.855 455.478L223.009 457.2V457.284C223.047 457.583 223.121 457.779 223.233 457.872C223.355 457.965 223.583 458.012 223.919 458.012V460ZM218.025 462.072L219.159 460.924L220.321 462.072L219.159 463.22L218.025 462.072ZM220.825 462.072L221.959 460.924L223.121 462.072L221.959 463.22L220.825 462.072ZM223.778 458.012H226.452C226.844 458.012 227.133 457.956 227.32 457.844C227.516 457.732 227.614 457.541 227.614 457.27C227.614 457.121 227.586 456.943 227.53 456.738L226.984 454.652L228.692 454.148L229.266 456.332C229.359 456.668 229.406 457.004 229.406 457.34C229.406 457.872 229.28 458.339 229.028 458.74C228.776 459.141 228.426 459.454 227.978 459.678C227.53 459.893 227.021 460 226.452 460H223.778V458.012ZM226.172 462.058L225.01 463.206L223.876 462.058L225.01 460.91L226.172 462.058ZM227.796 460.91L228.958 462.058L227.796 463.206L226.662 462.058L227.796 460.91ZM226.424 463.136L227.348 464.074L226.424 465.012L225.472 464.074L226.424 463.136ZM238.057 458.012V460H237.987C237.828 460 237.712 459.995 237.637 459.986C237.656 460.667 237.516 461.227 237.217 461.666C236.928 462.114 236.498 462.483 235.929 462.772C235.36 463.061 234.608 463.332 233.675 463.584L233.213 461.666C233.978 461.461 234.524 461.297 234.851 461.176C235.187 461.055 235.439 460.905 235.607 460.728C235.784 460.56 235.873 460.322 235.873 460.014C235.873 459.949 235.864 459.841 235.845 459.692L235.285 455.674L237.035 455.408L237.217 456.752C237.282 457.135 237.348 457.415 237.413 457.592C237.478 457.769 237.548 457.886 237.623 457.942C237.707 457.989 237.828 458.012 237.987 458.012H238.057ZM247.532 458.012V460H247.336C246.963 460 246.613 459.935 246.286 459.804C245.969 459.664 245.694 459.505 245.46 459.328C244.919 459.776 244.312 460 243.64 460H237.914V458.012H239.216L239.608 457.466L239.328 450.382L241.106 450.298L241.302 455.24C241.676 454.811 242.044 454.498 242.408 454.302C242.772 454.097 243.183 453.994 243.64 453.994C244.182 453.994 244.672 454.134 245.11 454.414C245.558 454.685 245.908 455.058 246.16 455.534C246.412 456.001 246.538 456.523 246.538 457.102C246.538 457.289 246.515 457.499 246.468 457.732C246.711 457.919 247 458.012 247.336 458.012H247.532ZM243.64 458.012C243.93 458.012 244.186 457.919 244.41 457.732C244.644 457.536 244.76 457.326 244.76 457.102C244.76 456.775 244.658 456.509 244.452 456.304C244.247 456.089 243.976 455.982 243.64 455.982C243.426 455.982 243.225 456.043 243.038 456.164C242.861 456.276 242.665 456.463 242.45 456.724C242.236 456.985 241.937 457.387 241.554 457.928L241.498 458.012H243.64ZM242.338 451.586L243.626 450.284L244.928 451.586L243.626 452.874L242.338 451.586ZM248.495 458.012C248.896 458.012 249.19 457.956 249.377 457.844C249.573 457.732 249.671 457.536 249.671 457.256C249.671 457.116 249.643 456.943 249.587 456.738L249.027 454.652L250.735 454.148L251.295 456.234C251.388 456.598 251.435 456.953 251.435 457.298C251.435 458.119 251.164 458.777 250.623 459.272C250.082 459.757 249.372 460 248.495 460H247.389V458.012H248.495ZM247.949 452.09L249.237 450.788L250.539 452.09L249.237 453.378L247.949 452.09ZM258.542 460C258.057 460 257.628 459.916 257.254 459.748C256.881 459.571 256.587 459.333 256.372 459.034C256.167 458.735 256.055 458.409 256.036 458.054C256.027 457.914 256.022 457.611 256.022 457.144H257.646C257.646 457.405 257.656 457.597 257.674 457.718C257.684 457.83 257.73 457.909 257.814 457.956C257.908 457.993 258.048 458.012 258.234 458.012H259.83C260.362 458.012 260.628 457.853 260.628 457.536C260.628 457.471 260.61 457.373 260.572 457.242C260.404 456.775 260.12 456.206 259.718 455.534C259.317 454.853 258.883 454.176 258.416 453.504L259.858 452.328C260.418 453.093 260.927 453.882 261.384 454.694C261.842 455.497 262.14 456.192 262.28 456.78C262.346 457.032 262.378 457.298 262.378 457.578C262.378 458.287 262.131 458.871 261.636 459.328C261.151 459.776 260.47 460 259.592 460H258.542ZM262.32 461.666C263.086 461.461 263.632 461.297 263.958 461.176C264.294 461.055 264.546 460.905 264.714 460.728C264.892 460.56 264.98 460.322 264.98 460.014C264.98 459.949 264.971 459.841 264.952 459.692L264.392 455.674L266.142 455.408L266.702 459.454C266.73 459.687 266.744 459.907 266.744 460.112C266.744 460.765 266.59 461.307 266.282 461.736C265.984 462.165 265.554 462.515 264.994 462.786C264.434 463.066 263.697 463.332 262.782 463.584L262.32 461.666ZM274.825 460H274.209C274.219 460.737 274.06 461.321 273.733 461.75C273.416 462.179 272.917 462.525 272.235 462.786C271.554 463.057 270.574 463.323 269.295 463.584L268.945 461.652C270.037 461.428 270.803 461.251 271.241 461.12C271.68 460.999 271.988 460.854 272.165 460.686C272.352 460.527 272.441 460.299 272.431 460H270.933C270.112 460 269.454 459.743 268.959 459.23C268.474 458.707 268.231 458.007 268.231 457.13C268.231 456.579 268.348 456.066 268.581 455.59C268.824 455.105 269.155 454.717 269.575 454.428C270.005 454.139 270.485 453.994 271.017 453.994C271.801 453.994 272.459 454.293 272.991 454.89C273.523 455.487 273.841 456.267 273.943 457.228L274.027 458.012H274.825V460ZM270.009 457.13C270.009 457.438 270.075 457.662 270.205 457.802C270.345 457.942 270.588 458.012 270.933 458.012H272.235L272.179 457.438C272.123 456.962 271.993 456.603 271.787 456.36C271.591 456.108 271.339 455.982 271.031 455.982C270.714 455.982 270.462 456.094 270.275 456.318C270.098 456.533 270.009 456.803 270.009 457.13ZM280.124 454.414C280.562 454.657 280.898 455.011 281.132 455.478C281.374 455.945 281.496 456.463 281.496 457.032C281.496 457.741 281.328 458.404 280.992 459.02C280.814 459.347 280.576 459.603 280.278 459.79C279.988 459.977 279.671 460.07 279.326 460.07C279.036 460.07 278.752 460 278.472 459.86L276.904 459.048C276.353 459.683 275.667 460 274.846 460H274.692V458.012H274.846C275.079 458.012 275.284 457.965 275.462 457.872C275.648 457.769 275.793 457.634 275.896 457.466L276.932 455.464C277.156 455.044 277.454 454.717 277.828 454.484C278.201 454.241 278.598 454.12 279.018 454.12C279.391 454.12 279.76 454.218 280.124 454.414ZM279.592 458.222C279.834 457.755 279.956 457.349 279.956 457.004C279.956 456.603 279.802 456.313 279.494 456.136C279.363 456.061 279.237 456.024 279.116 456.024C278.752 456.024 278.448 456.267 278.206 456.752L277.856 457.424L279.466 458.236C279.503 458.264 279.526 458.283 279.536 458.292C279.554 458.292 279.573 458.269 279.592 458.222ZM292.988 458.012V460H292.722C292.228 460 291.766 459.888 291.336 459.664C290.916 459.44 290.562 459.132 290.272 458.74L288.858 458.964C288.802 458.973 288.718 458.978 288.606 458.978C288.093 458.978 287.598 458.796 287.122 458.432C286.656 458.068 286.334 457.625 286.156 457.102C286.063 456.831 286.016 456.542 286.016 456.234C286.016 455.655 286.18 455.123 286.506 454.638C286.842 454.143 287.281 453.807 287.822 453.63L289.642 453.042V452.552H291.406V456.808C291.406 457.144 291.532 457.429 291.784 457.662C292.036 457.895 292.349 458.012 292.722 458.012H292.988ZM289.642 456.836V456.808V454.988L288.382 455.436C288.186 455.501 288.037 455.604 287.934 455.744C287.841 455.884 287.794 456.038 287.794 456.206C287.794 456.421 287.883 456.617 288.06 456.794C288.247 456.962 288.462 457.027 288.704 456.99L289.642 456.836ZM302.55 458.012V460H301.654C301.197 460 300.767 459.883 300.366 459.65C299.974 459.407 299.666 459.085 299.442 458.684L297.258 459.356C296.549 459.571 295.821 459.734 295.074 459.846C294.327 459.949 293.609 460 292.918 460H292.848V458.012H292.932C294.127 457.993 295.401 457.807 296.754 457.452L299.442 456.752L297.118 455.702C296.913 455.59 296.698 455.534 296.474 455.534C296.231 455.534 296.007 455.595 295.802 455.716C295.606 455.837 295.443 456.01 295.312 456.234L295.06 456.682L293.52 455.716L293.8 455.212C294.127 454.671 294.519 454.26 294.976 453.98C295.433 453.7 295.923 453.56 296.446 453.56C296.959 453.56 297.473 453.695 297.986 453.966L301.57 455.87L301.318 457.956C301.449 457.993 301.561 458.012 301.654 458.012H302.55ZM306.157 452.566L304.869 451.264L306.157 449.976L307.445 451.264L306.157 452.566ZM309.405 458.012V460H308.593C307.743 460 306.861 459.827 305.947 459.482C305.489 459.641 305.013 459.767 304.519 459.86C304.033 459.953 303.571 460 303.133 460H302.405V458.012H303.133C303.347 458.012 303.511 458.007 303.623 457.998C303.305 457.587 303.165 457.205 303.203 456.85L303.287 456.024C303.333 455.539 303.487 455.109 303.749 454.736C304.01 454.353 304.337 454.055 304.729 453.84C305.13 453.625 305.564 453.518 306.031 453.518C306.563 453.518 307.039 453.663 307.459 453.952C307.888 454.241 308.215 454.624 308.439 455.1C308.663 455.567 308.761 456.061 308.733 456.584L308.691 457.228C308.681 457.48 308.569 457.741 308.355 458.012H308.593H309.405ZM304.967 456.934C305.153 457.186 305.461 457.401 305.891 457.578C306.479 457.401 306.824 457.214 306.927 457.018L306.983 456.57C307.02 456.299 306.941 456.052 306.745 455.828C306.558 455.604 306.311 455.492 306.003 455.492C305.751 455.492 305.527 455.576 305.331 455.744C305.144 455.903 305.041 456.108 305.023 456.36L304.967 456.934ZM317.038 453.994C317.579 453.994 318.069 454.134 318.508 454.414C318.956 454.685 319.306 455.058 319.558 455.534C319.81 456.001 319.936 456.523 319.936 457.102C319.936 457.615 319.801 458.096 319.53 458.544C319.269 458.983 318.914 459.337 318.466 459.608C318.027 459.869 317.551 460 317.038 460H312.586C312.045 460 311.573 459.809 311.172 459.426C310.677 459.79 310.066 459.981 309.338 460H309.268V458.012H309.338C309.693 458.012 309.959 457.956 310.136 457.844C310.323 457.723 310.43 457.513 310.458 457.214L310.612 455.478L312.376 455.646L312.222 457.368C312.203 457.601 312.222 457.769 312.278 457.872C312.343 457.965 312.451 458.012 312.6 458.012H312.614L313.482 456.808C314.005 456.089 314.429 455.543 314.756 455.17C315.083 454.797 315.428 454.507 315.792 454.302C316.156 454.097 316.571 453.994 317.038 453.994ZM317.038 458.012C317.327 458.012 317.584 457.919 317.808 457.732C318.041 457.536 318.158 457.326 318.158 457.102C318.158 456.775 318.055 456.509 317.85 456.304C317.645 456.089 317.374 455.982 317.038 455.982C316.823 455.982 316.623 456.043 316.436 456.164C316.259 456.276 316.063 456.463 315.848 456.724C315.633 456.985 315.335 457.387 314.952 457.928L314.896 458.012H317.038Z" fill="#37474F"/>
</svg>
